<svg width="85" height="171" viewBox="0 0 85 171" fill="none" xmlns="http://www.w3.org/2000/svg">
<path d="M80.7375 170.259C81.4846 170.259 82.0902 169.653 82.0902 168.904C82.0902 168.156 81.4846 167.549 80.7375 167.549C79.9904 167.549 79.3848 168.156 79.3848 168.904C79.3848 169.653 79.9904 170.259 80.7375 170.259Z" stroke="#FF0000" stroke-width="0.75" stroke-miterlimit="10"/>
<path d="M77.6301 167.151C78.3771 167.151 78.9828 166.545 78.9828 165.796C78.9828 165.048 78.3771 164.441 77.6301 164.441C76.883 164.441 76.2773 165.048 76.2773 165.796C76.2773 166.545 76.883 167.151 77.6301 167.151Z" stroke="#FF0000" stroke-width="0.75" stroke-miterlimit="10"/>
<path d="M74.5246 164.04C75.2717 164.04 75.8773 163.433 75.8773 162.684C75.8773 161.936 75.2717 161.329 74.5246 161.329C73.7775 161.329 73.1719 161.936 73.1719 162.684C73.1719 163.433 73.7775 164.04 74.5246 164.04Z" stroke="#FF0000" stroke-width="0.75" stroke-miterlimit="10"/>
<path d="M71.423 160.928C72.1701 160.928 72.7757 160.322 72.7757 159.573C72.7757 158.825 72.1701 158.218 71.423 158.218C70.6759 158.218 70.0703 158.825 70.0703 159.573C70.0703 160.322 70.6759 160.928 71.423 160.928Z" stroke="#FF0000" stroke-width="0.75" stroke-miterlimit="10"/>
<path d="M68.3176 157.817C69.0646 157.817 69.6703 157.21 69.6703 156.462C69.6703 155.713 69.0646 155.106 68.3176 155.106C67.5705 155.106 66.9648 155.713 66.9648 156.462C66.9648 157.21 67.5705 157.817 68.3176 157.817Z" stroke="#FF0000" stroke-width="0.75" stroke-miterlimit="10"/>
<path d="M65.2121 154.706C65.9592 154.706 66.5648 154.099 66.5648 153.35C66.5648 152.602 65.9592 151.995 65.2121 151.995C64.465 151.995 63.8594 152.602 63.8594 153.35C63.8594 154.099 64.465 154.706 65.2121 154.706Z" stroke="#FF0000" stroke-width="0.75" stroke-miterlimit="10"/>
<path d="M62.1047 151.597C62.8518 151.597 63.4574 150.99 63.4574 150.242C63.4574 149.493 62.8518 148.887 62.1047 148.887C61.3576 148.887 60.752 149.493 60.752 150.242C60.752 150.99 61.3576 151.597 62.1047 151.597Z" stroke="#FF0000" stroke-width="0.75" stroke-miterlimit="10"/>
<path d="M59.0031 148.485C59.7502 148.485 60.3558 147.879 60.3558 147.13C60.3558 146.382 59.7502 145.775 59.0031 145.775C58.256 145.775 57.6504 146.382 57.6504 147.13C57.6504 147.879 58.256 148.485 59.0031 148.485Z" stroke="#FF0000" stroke-width="0.75" stroke-miterlimit="10"/>
<path d="M55.8957 145.374C56.6428 145.374 57.2484 144.767 57.2484 144.019C57.2484 143.27 56.6428 142.664 55.8957 142.664C55.1486 142.664 54.543 143.27 54.543 144.019C54.543 144.767 55.1486 145.374 55.8957 145.374Z" stroke="#FF0000" stroke-width="0.75" stroke-miterlimit="10"/>
<path d="M52.7902 142.263C53.5373 142.263 54.1429 141.656 54.1429 140.908C54.1429 140.159 53.5373 139.552 52.7902 139.552C52.0431 139.552 51.4375 140.159 51.4375 140.908C51.4375 141.656 52.0431 142.263 52.7902 142.263Z" stroke="#FF0000" stroke-width="0.75" stroke-miterlimit="10"/>
<path d="M49.6887 139.151C50.4357 139.151 51.0414 138.544 51.0414 137.796C51.0414 137.047 50.4357 136.44 49.6887 136.44C48.9416 136.44 48.3359 137.047 48.3359 137.796C48.3359 138.544 48.9416 139.151 49.6887 139.151Z" stroke="#FF0000" stroke-width="0.75" stroke-miterlimit="10"/>
<path d="M46.5793 136.043C47.3264 136.043 47.932 135.436 47.932 134.688C47.932 133.939 47.3264 133.333 46.5793 133.333C45.8322 133.333 45.2266 133.939 45.2266 134.688C45.2266 135.436 45.8322 136.043 46.5793 136.043Z" stroke="#FF0000" stroke-width="0.75" stroke-miterlimit="10"/>
<path d="M43.4777 132.932C44.2248 132.932 44.8304 132.325 44.8304 131.576C44.8304 130.828 44.2248 130.221 43.4777 130.221C42.7306 130.221 42.125 130.828 42.125 131.576C42.125 132.325 42.7306 132.932 43.4777 132.932Z" stroke="#FF0000" stroke-width="0.75" stroke-miterlimit="10"/>
<path d="M40.3703 129.82C41.1174 129.82 41.723 129.213 41.723 128.465C41.723 127.716 41.1174 127.109 40.3703 127.109C39.6232 127.109 39.0176 127.716 39.0176 128.465C39.0176 129.213 39.6232 129.82 40.3703 129.82Z" stroke="#FF0000" stroke-width="0.75" stroke-miterlimit="10"/>
<path d="M37.2687 126.709C38.0158 126.709 38.6214 126.102 38.6214 125.353C38.6214 124.605 38.0158 123.998 37.2687 123.998C36.5216 123.998 35.916 124.605 35.916 125.353C35.916 126.102 36.5216 126.709 37.2687 126.709Z" stroke="#FF0000" stroke-width="0.75" stroke-miterlimit="10"/>
<path d="M34.1633 123.601C34.9103 123.601 35.516 122.994 35.516 122.245C35.516 121.497 34.9103 120.89 34.1633 120.89C33.4162 120.89 32.8105 121.497 32.8105 122.245C32.8105 122.994 33.4162 123.601 34.1633 123.601Z" stroke="#FF0000" stroke-width="0.75" stroke-miterlimit="10"/>
<path d="M31.0558 120.489C31.8029 120.489 32.4086 119.882 32.4086 119.134C32.4086 118.385 31.8029 117.778 31.0558 117.778C30.3088 117.778 29.7031 118.385 29.7031 119.134C29.7031 119.882 30.3088 120.489 31.0558 120.489Z" stroke="#FF0000" stroke-width="0.75" stroke-miterlimit="10"/>
<path d="M27.9504 117.378C28.6975 117.378 29.3031 116.771 29.3031 116.022C29.3031 115.274 28.6975 114.667 27.9504 114.667C27.2033 114.667 26.5977 115.274 26.5977 116.022C26.5977 116.771 27.2033 117.378 27.9504 117.378Z" stroke="#FF0000" stroke-width="0.75" stroke-miterlimit="10"/>
<path d="M24.8429 114.266C25.59 114.266 26.1957 113.659 26.1957 112.91C26.1957 112.162 25.59 111.555 24.8429 111.555C24.0959 111.555 23.4902 112.162 23.4902 112.91C23.4902 113.659 24.0959 114.266 24.8429 114.266Z" stroke="#FF0000" stroke-width="0.75" stroke-miterlimit="10"/>
<path d="M21.7433 111.154C22.4904 111.154 23.0961 110.548 23.0961 109.799C23.0961 109.051 22.4904 108.444 21.7433 108.444C20.9963 108.444 20.3906 109.051 20.3906 109.799C20.3906 110.548 20.9963 111.154 21.7433 111.154Z" stroke="#FF0000" stroke-width="0.75" stroke-miterlimit="10"/>
<path d="M18.6359 108.046C19.383 108.046 19.9886 107.439 19.9886 106.691C19.9886 105.942 19.383 105.335 18.6359 105.335C17.8888 105.335 17.2832 105.942 17.2832 106.691C17.2832 107.439 17.8888 108.046 18.6359 108.046Z" stroke="#FF0000" stroke-width="0.75" stroke-miterlimit="10"/>
<path d="M15.5304 104.935C16.2775 104.935 16.8832 104.328 16.8832 103.579C16.8832 102.831 16.2775 102.224 15.5304 102.224C14.7834 102.224 14.1777 102.831 14.1777 103.579C14.1777 104.328 14.7834 104.935 15.5304 104.935Z" stroke="#FF0000" stroke-width="0.75" stroke-miterlimit="10"/>
<path d="M12.4269 101.823C13.174 101.823 13.7797 101.217 13.7797 100.468C13.7797 99.7196 13.174 99.1128 12.4269 99.1128C11.6799 99.1128 11.0742 99.7196 11.0742 100.468C11.0742 101.217 11.6799 101.823 12.4269 101.823Z" stroke="#FF0000" stroke-width="0.75" stroke-miterlimit="10"/>
<path d="M9.31951 98.7115C10.0666 98.7115 10.6722 98.1047 10.6722 97.3563C10.6722 96.6078 10.0666 96.001 9.31951 96.001C8.57243 96.001 7.9668 96.6078 7.9668 97.3563C7.9668 98.1047 8.57243 98.7115 9.31951 98.7115Z" stroke="#FF0000" stroke-width="0.75" stroke-miterlimit="10"/>
<path d="M6.2199 95.6002C6.96699 95.6002 7.57262 94.9934 7.57262 94.2449C7.57262 93.4964 6.96699 92.8896 6.2199 92.8896C5.47282 92.8896 4.86719 93.4964 4.86719 94.2449C4.86719 94.9934 5.47282 95.6002 6.2199 95.6002Z" stroke="#FF0000" stroke-width="0.75" stroke-miterlimit="10"/>
<path d="M3.11248 92.4918C3.85956 92.4918 4.4652 91.885 4.4652 91.1365C4.4652 90.388 3.85956 89.7812 3.11248 89.7812C2.3654 89.7812 1.75977 90.388 1.75977 91.1365C1.75977 91.885 2.3654 92.4918 3.11248 92.4918Z" stroke="#FF0000" stroke-width="0.75" stroke-miterlimit="10"/>
<path d="M80.7375 164.04C81.4846 164.04 82.0902 163.433 82.0902 162.684C82.0902 161.936 81.4846 161.329 80.7375 161.329C79.9904 161.329 79.3848 161.936 79.3848 162.684C79.3848 163.433 79.9904 164.04 80.7375 164.04Z" stroke="#FF0000" stroke-width="0.75" stroke-miterlimit="10"/>
<path d="M77.6301 160.928C78.3771 160.928 78.9828 160.322 78.9828 159.573C78.9828 158.825 78.3771 158.218 77.6301 158.218C76.883 158.218 76.2773 158.825 76.2773 159.573C76.2773 160.322 76.883 160.928 77.6301 160.928Z" stroke="#FF0000" stroke-width="0.75" stroke-miterlimit="10"/>
<path d="M74.5246 157.817C75.2717 157.817 75.8773 157.21 75.8773 156.462C75.8773 155.713 75.2717 155.106 74.5246 155.106C73.7775 155.106 73.1719 155.713 73.1719 156.462C73.1719 157.21 73.7775 157.817 74.5246 157.817Z" stroke="#FF0000" stroke-width="0.75" stroke-miterlimit="10"/>
<path d="M71.423 154.706C72.1701 154.706 72.7757 154.099 72.7757 153.35C72.7757 152.602 72.1701 151.995 71.423 151.995C70.6759 151.995 70.0703 152.602 70.0703 153.35C70.0703 154.099 70.6759 154.706 71.423 154.706Z" stroke="#FF0000" stroke-width="0.75" stroke-miterlimit="10"/>
<path d="M68.3176 151.597C69.0646 151.597 69.6703 150.99 69.6703 150.242C69.6703 149.493 69.0646 148.887 68.3176 148.887C67.5705 148.887 66.9648 149.493 66.9648 150.242C66.9648 150.99 67.5705 151.597 68.3176 151.597Z" stroke="#FF0000" stroke-width="0.75" stroke-miterlimit="10"/>
<path d="M65.2121 148.485C65.9592 148.485 66.5648 147.879 66.5648 147.13C66.5648 146.382 65.9592 145.775 65.2121 145.775C64.465 145.775 63.8594 146.382 63.8594 147.13C63.8594 147.879 64.465 148.485 65.2121 148.485Z" stroke="#FF0000" stroke-width="0.75" stroke-miterlimit="10"/>
<path d="M62.1047 145.374C62.8518 145.374 63.4574 144.767 63.4574 144.019C63.4574 143.27 62.8518 142.664 62.1047 142.664C61.3576 142.664 60.752 143.27 60.752 144.019C60.752 144.767 61.3576 145.374 62.1047 145.374Z" stroke="#FF0000" stroke-width="0.75" stroke-miterlimit="10"/>
<path d="M59.0031 142.263C59.7502 142.263 60.3558 141.656 60.3558 140.908C60.3558 140.159 59.7502 139.552 59.0031 139.552C58.256 139.552 57.6504 140.159 57.6504 140.908C57.6504 141.656 58.256 142.263 59.0031 142.263Z" stroke="#FF0000" stroke-width="0.75" stroke-miterlimit="10"/>
<path d="M55.8957 139.151C56.6428 139.151 57.2484 138.544 57.2484 137.796C57.2484 137.047 56.6428 136.44 55.8957 136.44C55.1486 136.44 54.543 137.047 54.543 137.796C54.543 138.544 55.1486 139.151 55.8957 139.151Z" stroke="#FF0000" stroke-width="0.75" stroke-miterlimit="10"/>
<path d="M52.7902 136.043C53.5373 136.043 54.1429 135.436 54.1429 134.688C54.1429 133.939 53.5373 133.333 52.7902 133.333C52.0431 133.333 51.4375 133.939 51.4375 134.688C51.4375 135.436 52.0431 136.043 52.7902 136.043Z" stroke="#FF0000" stroke-width="0.75" stroke-miterlimit="10"/>
<path d="M49.6887 132.932C50.4357 132.932 51.0414 132.325 51.0414 131.576C51.0414 130.828 50.4357 130.221 49.6887 130.221C48.9416 130.221 48.3359 130.828 48.3359 131.576C48.3359 132.325 48.9416 132.932 49.6887 132.932Z" stroke="#FF0000" stroke-width="0.75" stroke-miterlimit="10"/>
<path d="M46.5793 129.82C47.3264 129.82 47.932 129.213 47.932 128.465C47.932 127.716 47.3264 127.109 46.5793 127.109C45.8322 127.109 45.2266 127.716 45.2266 128.465C45.2266 129.213 45.8322 129.82 46.5793 129.82Z" stroke="#FF0000" stroke-width="0.75" stroke-miterlimit="10"/>
<path d="M43.4777 126.709C44.2248 126.709 44.8304 126.102 44.8304 125.353C44.8304 124.605 44.2248 123.998 43.4777 123.998C42.7306 123.998 42.125 124.605 42.125 125.353C42.125 126.102 42.7306 126.709 43.4777 126.709Z" stroke="#FF0000" stroke-width="0.75" stroke-miterlimit="10"/>
<path d="M40.3703 123.601C41.1174 123.601 41.723 122.994 41.723 122.245C41.723 121.497 41.1174 120.89 40.3703 120.89C39.6232 120.89 39.0176 121.497 39.0176 122.245C39.0176 122.994 39.6232 123.601 40.3703 123.601Z" stroke="#FF0000" stroke-width="0.75" stroke-miterlimit="10"/>
<path d="M37.2687 120.489C38.0158 120.489 38.6214 119.882 38.6214 119.134C38.6214 118.385 38.0158 117.778 37.2687 117.778C36.5216 117.778 35.916 118.385 35.916 119.134C35.916 119.882 36.5216 120.489 37.2687 120.489Z" stroke="#FF0000" stroke-width="0.75" stroke-miterlimit="10"/>
<path d="M34.1633 117.378C34.9103 117.378 35.516 116.771 35.516 116.022C35.516 115.274 34.9103 114.667 34.1633 114.667C33.4162 114.667 32.8105 115.274 32.8105 116.022C32.8105 116.771 33.4162 117.378 34.1633 117.378Z" stroke="#FF0000" stroke-width="0.75" stroke-miterlimit="10"/>
<path d="M31.0558 114.266C31.8029 114.266 32.4086 113.659 32.4086 112.91C32.4086 112.162 31.8029 111.555 31.0558 111.555C30.3088 111.555 29.7031 112.162 29.7031 112.91C29.7031 113.659 30.3088 114.266 31.0558 114.266Z" stroke="#FF0000" stroke-width="0.75" stroke-miterlimit="10"/>
<path d="M27.9504 111.154C28.6975 111.154 29.3031 110.548 29.3031 109.799C29.3031 109.051 28.6975 108.444 27.9504 108.444C27.2033 108.444 26.5977 109.051 26.5977 109.799C26.5977 110.548 27.2033 111.154 27.9504 111.154Z" stroke="#FF0000" stroke-width="0.75" stroke-miterlimit="10"/>
<path d="M24.8429 108.046C25.59 108.046 26.1957 107.439 26.1957 106.691C26.1957 105.942 25.59 105.335 24.8429 105.335C24.0959 105.335 23.4902 105.942 23.4902 106.691C23.4902 107.439 24.0959 108.046 24.8429 108.046Z" stroke="#FF0000" stroke-width="0.75" stroke-miterlimit="10"/>
<path d="M21.7433 104.935C22.4904 104.935 23.0961 104.328 23.0961 103.579C23.0961 102.831 22.4904 102.224 21.7433 102.224C20.9963 102.224 20.3906 102.831 20.3906 103.579C20.3906 104.328 20.9963 104.935 21.7433 104.935Z" stroke="#FF0000" stroke-width="0.75" stroke-miterlimit="10"/>
<path d="M18.6359 101.823C19.383 101.823 19.9886 101.217 19.9886 100.468C19.9886 99.7196 19.383 99.1128 18.6359 99.1128C17.8888 99.1128 17.2832 99.7196 17.2832 100.468C17.2832 101.217 17.8888 101.823 18.6359 101.823Z" stroke="#FF0000" stroke-width="0.75" stroke-miterlimit="10"/>
<path d="M15.5304 98.7115C16.2775 98.7115 16.8832 98.1047 16.8832 97.3563C16.8832 96.6078 16.2775 96.001 15.5304 96.001C14.7834 96.001 14.1777 96.6078 14.1777 97.3563C14.1777 98.1047 14.7834 98.7115 15.5304 98.7115Z" stroke="#FF0000" stroke-width="0.75" stroke-miterlimit="10"/>
<path d="M12.4269 95.6002C13.174 95.6002 13.7797 94.9934 13.7797 94.2449C13.7797 93.4964 13.174 92.8896 12.4269 92.8896C11.6799 92.8896 11.0742 93.4964 11.0742 94.2449C11.0742 94.9934 11.6799 95.6002 12.4269 95.6002Z" stroke="#FF0000" stroke-width="0.75" stroke-miterlimit="10"/>
<path d="M9.31951 92.4918C10.0666 92.4918 10.6722 91.885 10.6722 91.1365C10.6722 90.388 10.0666 89.7812 9.31951 89.7812C8.57243 89.7812 7.9668 90.388 7.9668 91.1365C7.9668 91.885 8.57243 92.4918 9.31951 92.4918Z" stroke="#FF0000" stroke-width="0.75" stroke-miterlimit="10"/>
<path d="M6.2199 89.3805C6.96699 89.3805 7.57262 88.7737 7.57262 88.0252C7.57262 87.2767 6.96699 86.6699 6.2199 86.6699C5.47282 86.6699 4.86719 87.2767 4.86719 88.0252C4.86719 88.7737 5.47282 89.3805 6.2199 89.3805Z" stroke="#FF0000" stroke-width="0.75" stroke-miterlimit="10"/>
<path d="M80.7375 157.817C81.4846 157.817 82.0902 157.21 82.0902 156.462C82.0902 155.713 81.4846 155.106 80.7375 155.106C79.9904 155.106 79.3848 155.713 79.3848 156.462C79.3848 157.21 79.9904 157.817 80.7375 157.817Z" stroke="#FF0000" stroke-width="0.75" stroke-miterlimit="10"/>
<path d="M77.6301 154.706C78.3771 154.706 78.9828 154.099 78.9828 153.35C78.9828 152.602 78.3771 151.995 77.6301 151.995C76.883 151.995 76.2773 152.602 76.2773 153.35C76.2773 154.099 76.883 154.706 77.6301 154.706Z" stroke="#FF0000" stroke-width="0.75" stroke-miterlimit="10"/>
<path d="M74.5246 151.597C75.2717 151.597 75.8773 150.99 75.8773 150.242C75.8773 149.493 75.2717 148.887 74.5246 148.887C73.7775 148.887 73.1719 149.493 73.1719 150.242C73.1719 150.99 73.7775 151.597 74.5246 151.597Z" stroke="#FF0000" stroke-width="0.75" stroke-miterlimit="10"/>
<path d="M71.423 148.485C72.1701 148.485 72.7757 147.879 72.7757 147.13C72.7757 146.382 72.1701 145.775 71.423 145.775C70.6759 145.775 70.0703 146.382 70.0703 147.13C70.0703 147.879 70.6759 148.485 71.423 148.485Z" stroke="#FF0000" stroke-width="0.75" stroke-miterlimit="10"/>
<path d="M68.3176 145.374C69.0646 145.374 69.6703 144.767 69.6703 144.019C69.6703 143.27 69.0646 142.664 68.3176 142.664C67.5705 142.664 66.9648 143.27 66.9648 144.019C66.9648 144.767 67.5705 145.374 68.3176 145.374Z" stroke="#FF0000" stroke-width="0.75" stroke-miterlimit="10"/>
<path d="M65.2121 142.263C65.9592 142.263 66.5648 141.656 66.5648 140.908C66.5648 140.159 65.9592 139.552 65.2121 139.552C64.465 139.552 63.8594 140.159 63.8594 140.908C63.8594 141.656 64.465 142.263 65.2121 142.263Z" stroke="#FF0000" stroke-width="0.75" stroke-miterlimit="10"/>
<path d="M62.1047 139.151C62.8518 139.151 63.4574 138.544 63.4574 137.796C63.4574 137.047 62.8518 136.44 62.1047 136.44C61.3576 136.44 60.752 137.047 60.752 137.796C60.752 138.544 61.3576 139.151 62.1047 139.151Z" stroke="#FF0000" stroke-width="0.75" stroke-miterlimit="10"/>
<path d="M59.0031 136.043C59.7502 136.043 60.3558 135.436 60.3558 134.688C60.3558 133.939 59.7502 133.333 59.0031 133.333C58.256 133.333 57.6504 133.939 57.6504 134.688C57.6504 135.436 58.256 136.043 59.0031 136.043Z" stroke="#FF0000" stroke-width="0.75" stroke-miterlimit="10"/>
<path d="M55.8957 132.932C56.6428 132.932 57.2484 132.325 57.2484 131.576C57.2484 130.828 56.6428 130.221 55.8957 130.221C55.1486 130.221 54.543 130.828 54.543 131.576C54.543 132.325 55.1486 132.932 55.8957 132.932Z" stroke="#FF0000" stroke-width="0.75" stroke-miterlimit="10"/>
<path d="M52.7902 129.82C53.5373 129.82 54.1429 129.213 54.1429 128.465C54.1429 127.716 53.5373 127.109 52.7902 127.109C52.0431 127.109 51.4375 127.716 51.4375 128.465C51.4375 129.213 52.0431 129.82 52.7902 129.82Z" stroke="#FF0000" stroke-width="0.75" stroke-miterlimit="10"/>
<path d="M49.6887 126.709C50.4357 126.709 51.0414 126.102 51.0414 125.353C51.0414 124.605 50.4357 123.998 49.6887 123.998C48.9416 123.998 48.3359 124.605 48.3359 125.353C48.3359 126.102 48.9416 126.709 49.6887 126.709Z" stroke="#FF0000" stroke-width="0.75" stroke-miterlimit="10"/>
<path d="M46.5793 123.601C47.3264 123.601 47.932 122.994 47.932 122.245C47.932 121.497 47.3264 120.89 46.5793 120.89C45.8322 120.89 45.2266 121.497 45.2266 122.245C45.2266 122.994 45.8322 123.601 46.5793 123.601Z" stroke="#FF0000" stroke-width="0.75" stroke-miterlimit="10"/>
<path d="M43.4777 120.489C44.2248 120.489 44.8304 119.882 44.8304 119.134C44.8304 118.385 44.2248 117.778 43.4777 117.778C42.7306 117.778 42.125 118.385 42.125 119.134C42.125 119.882 42.7306 120.489 43.4777 120.489Z" stroke="#FF0000" stroke-width="0.75" stroke-miterlimit="10"/>
<path d="M40.3703 117.378C41.1174 117.378 41.723 116.771 41.723 116.022C41.723 115.274 41.1174 114.667 40.3703 114.667C39.6232 114.667 39.0176 115.274 39.0176 116.022C39.0176 116.771 39.6232 117.378 40.3703 117.378Z" stroke="#FF0000" stroke-width="0.75" stroke-miterlimit="10"/>
<path d="M37.2687 114.266C38.0158 114.266 38.6214 113.659 38.6214 112.91C38.6214 112.162 38.0158 111.555 37.2687 111.555C36.5216 111.555 35.916 112.162 35.916 112.91C35.916 113.659 36.5216 114.266 37.2687 114.266Z" stroke="#FF0000" stroke-width="0.75" stroke-miterlimit="10"/>
<path d="M34.1633 111.154C34.9103 111.154 35.516 110.548 35.516 109.799C35.516 109.051 34.9103 108.444 34.1633 108.444C33.4162 108.444 32.8105 109.051 32.8105 109.799C32.8105 110.548 33.4162 111.154 34.1633 111.154Z" stroke="#FF0000" stroke-width="0.75" stroke-miterlimit="10"/>
<path d="M31.0558 108.046C31.8029 108.046 32.4086 107.439 32.4086 106.691C32.4086 105.942 31.8029 105.335 31.0558 105.335C30.3088 105.335 29.7031 105.942 29.7031 106.691C29.7031 107.439 30.3088 108.046 31.0558 108.046Z" stroke="#FF0000" stroke-width="0.75" stroke-miterlimit="10"/>
<path d="M27.9504 104.935C28.6975 104.935 29.3031 104.328 29.3031 103.579C29.3031 102.831 28.6975 102.224 27.9504 102.224C27.2033 102.224 26.5977 102.831 26.5977 103.579C26.5977 104.328 27.2033 104.935 27.9504 104.935Z" stroke="#FF0000" stroke-width="0.75" stroke-miterlimit="10"/>
<path d="M24.8429 101.823C25.59 101.823 26.1957 101.217 26.1957 100.468C26.1957 99.7196 25.59 99.1128 24.8429 99.1128C24.0959 99.1128 23.4902 99.7196 23.4902 100.468C23.4902 101.217 24.0959 101.823 24.8429 101.823Z" stroke="#FF0000" stroke-width="0.75" stroke-miterlimit="10"/>
<path d="M21.7433 98.7115C22.4904 98.7115 23.0961 98.1047 23.0961 97.3563C23.0961 96.6078 22.4904 96.001 21.7433 96.001C20.9963 96.001 20.3906 96.6078 20.3906 97.3563C20.3906 98.1047 20.9963 98.7115 21.7433 98.7115Z" stroke="#FF0000" stroke-width="0.75" stroke-miterlimit="10"/>
<path d="M18.6359 95.6002C19.383 95.6002 19.9886 94.9934 19.9886 94.2449C19.9886 93.4964 19.383 92.8896 18.6359 92.8896C17.8888 92.8896 17.2832 93.4964 17.2832 94.2449C17.2832 94.9934 17.8888 95.6002 18.6359 95.6002Z" stroke="#FF0000" stroke-width="0.75" stroke-miterlimit="10"/>
<path d="M15.5304 92.4918C16.2775 92.4918 16.8832 91.885 16.8832 91.1365C16.8832 90.388 16.2775 89.7812 15.5304 89.7812C14.7834 89.7812 14.1777 90.388 14.1777 91.1365C14.1777 91.885 14.7834 92.4918 15.5304 92.4918Z" stroke="#FF0000" stroke-width="0.75" stroke-miterlimit="10"/>
<path d="M12.4269 89.3805C13.174 89.3805 13.7797 88.7737 13.7797 88.0252C13.7797 87.2767 13.174 86.6699 12.4269 86.6699C11.6799 86.6699 11.0742 87.2767 11.0742 88.0252C11.0742 88.7737 11.6799 89.3805 12.4269 89.3805Z" stroke="#FF0000" stroke-width="0.75" stroke-miterlimit="10"/>
<path d="M9.31951 86.2691C10.0666 86.2691 10.6722 85.6624 10.6722 84.9139C10.6722 84.1654 10.0666 83.5586 9.31951 83.5586C8.57243 83.5586 7.9668 84.1654 7.9668 84.9139C7.9668 85.6624 8.57243 86.2691 9.31951 86.2691Z" stroke="#FF0000" stroke-width="0.75" stroke-miterlimit="10"/>
<path d="M80.7375 151.597C81.4846 151.597 82.0902 150.99 82.0902 150.242C82.0902 149.493 81.4846 148.887 80.7375 148.887C79.9904 148.887 79.3848 149.493 79.3848 150.242C79.3848 150.99 79.9904 151.597 80.7375 151.597Z" stroke="#FF0000" stroke-width="0.75" stroke-miterlimit="10"/>
<path d="M77.6301 148.485C78.3771 148.485 78.9828 147.879 78.9828 147.13C78.9828 146.382 78.3771 145.775 77.6301 145.775C76.883 145.775 76.2773 146.382 76.2773 147.13C76.2773 147.879 76.883 148.485 77.6301 148.485Z" stroke="#FF0000" stroke-width="0.75" stroke-miterlimit="10"/>
<path d="M74.5246 145.374C75.2717 145.374 75.8773 144.767 75.8773 144.019C75.8773 143.27 75.2717 142.664 74.5246 142.664C73.7775 142.664 73.1719 143.27 73.1719 144.019C73.1719 144.767 73.7775 145.374 74.5246 145.374Z" stroke="#FF0000" stroke-width="0.75" stroke-miterlimit="10"/>
<path d="M71.423 142.263C72.1701 142.263 72.7757 141.656 72.7757 140.908C72.7757 140.159 72.1701 139.552 71.423 139.552C70.6759 139.552 70.0703 140.159 70.0703 140.908C70.0703 141.656 70.6759 142.263 71.423 142.263Z" stroke="#FF0000" stroke-width="0.75" stroke-miterlimit="10"/>
<path d="M68.3176 139.151C69.0646 139.151 69.6703 138.544 69.6703 137.796C69.6703 137.047 69.0646 136.44 68.3176 136.44C67.5705 136.44 66.9648 137.047 66.9648 137.796C66.9648 138.544 67.5705 139.151 68.3176 139.151Z" stroke="#FF0000" stroke-width="0.75" stroke-miterlimit="10"/>
<path d="M65.2121 136.043C65.9592 136.043 66.5648 135.436 66.5648 134.688C66.5648 133.939 65.9592 133.333 65.2121 133.333C64.465 133.333 63.8594 133.939 63.8594 134.688C63.8594 135.436 64.465 136.043 65.2121 136.043Z" stroke="#FF0000" stroke-width="0.75" stroke-miterlimit="10"/>
<path d="M62.1047 132.932C62.8518 132.932 63.4574 132.325 63.4574 131.576C63.4574 130.828 62.8518 130.221 62.1047 130.221C61.3576 130.221 60.752 130.828 60.752 131.576C60.752 132.325 61.3576 132.932 62.1047 132.932Z" stroke="#FF0000" stroke-width="0.75" stroke-miterlimit="10"/>
<path d="M59.0031 129.82C59.7502 129.82 60.3558 129.213 60.3558 128.465C60.3558 127.716 59.7502 127.109 59.0031 127.109C58.256 127.109 57.6504 127.716 57.6504 128.465C57.6504 129.213 58.256 129.82 59.0031 129.82Z" stroke="#FF0000" stroke-width="0.75" stroke-miterlimit="10"/>
<path d="M55.8957 126.709C56.6428 126.709 57.2484 126.102 57.2484 125.353C57.2484 124.605 56.6428 123.998 55.8957 123.998C55.1486 123.998 54.543 124.605 54.543 125.353C54.543 126.102 55.1486 126.709 55.8957 126.709Z" stroke="#FF0000" stroke-width="0.75" stroke-miterlimit="10"/>
<path d="M52.7902 123.601C53.5373 123.601 54.1429 122.994 54.1429 122.245C54.1429 121.497 53.5373 120.89 52.7902 120.89C52.0431 120.89 51.4375 121.497 51.4375 122.245C51.4375 122.994 52.0431 123.601 52.7902 123.601Z" stroke="#FF0000" stroke-width="0.75" stroke-miterlimit="10"/>
<path d="M49.6887 120.489C50.4357 120.489 51.0414 119.882 51.0414 119.134C51.0414 118.385 50.4357 117.778 49.6887 117.778C48.9416 117.778 48.3359 118.385 48.3359 119.134C48.3359 119.882 48.9416 120.489 49.6887 120.489Z" stroke="#FF0000" stroke-width="0.75" stroke-miterlimit="10"/>
<path d="M46.5793 117.378C47.3264 117.378 47.932 116.771 47.932 116.022C47.932 115.274 47.3264 114.667 46.5793 114.667C45.8322 114.667 45.2266 115.274 45.2266 116.022C45.2266 116.771 45.8322 117.378 46.5793 117.378Z" stroke="#FF0000" stroke-width="0.75" stroke-miterlimit="10"/>
<path d="M43.4777 114.266C44.2248 114.266 44.8304 113.659 44.8304 112.91C44.8304 112.162 44.2248 111.555 43.4777 111.555C42.7306 111.555 42.125 112.162 42.125 112.91C42.125 113.659 42.7306 114.266 43.4777 114.266Z" stroke="#FF0000" stroke-width="0.75" stroke-miterlimit="10"/>
<path d="M40.3703 111.154C41.1174 111.154 41.723 110.548 41.723 109.799C41.723 109.051 41.1174 108.444 40.3703 108.444C39.6232 108.444 39.0176 109.051 39.0176 109.799C39.0176 110.548 39.6232 111.154 40.3703 111.154Z" stroke="#FF0000" stroke-width="0.75" stroke-miterlimit="10"/>
<path d="M37.2687 108.046C38.0158 108.046 38.6214 107.439 38.6214 106.691C38.6214 105.942 38.0158 105.335 37.2687 105.335C36.5216 105.335 35.916 105.942 35.916 106.691C35.916 107.439 36.5216 108.046 37.2687 108.046Z" stroke="#FF0000" stroke-width="0.75" stroke-miterlimit="10"/>
<path d="M34.1633 104.935C34.9103 104.935 35.516 104.328 35.516 103.579C35.516 102.831 34.9103 102.224 34.1633 102.224C33.4162 102.224 32.8105 102.831 32.8105 103.579C32.8105 104.328 33.4162 104.935 34.1633 104.935Z" stroke="#FF0000" stroke-width="0.75" stroke-miterlimit="10"/>
<path d="M31.0558 101.823C31.8029 101.823 32.4086 101.217 32.4086 100.468C32.4086 99.7196 31.8029 99.1128 31.0558 99.1128C30.3088 99.1128 29.7031 99.7196 29.7031 100.468C29.7031 101.217 30.3088 101.823 31.0558 101.823Z" stroke="#FF0000" stroke-width="0.75" stroke-miterlimit="10"/>
<path d="M27.9504 98.7115C28.6975 98.7115 29.3031 98.1047 29.3031 97.3563C29.3031 96.6078 28.6975 96.001 27.9504 96.001C27.2033 96.001 26.5977 96.6078 26.5977 97.3563C26.5977 98.1047 27.2033 98.7115 27.9504 98.7115Z" stroke="#FF0000" stroke-width="0.75" stroke-miterlimit="10"/>
<path d="M24.8429 95.6002C25.59 95.6002 26.1957 94.9934 26.1957 94.2449C26.1957 93.4964 25.59 92.8896 24.8429 92.8896C24.0959 92.8896 23.4902 93.4964 23.4902 94.2449C23.4902 94.9934 24.0959 95.6002 24.8429 95.6002Z" stroke="#FF0000" stroke-width="0.75" stroke-miterlimit="10"/>
<path d="M21.7433 92.4918C22.4904 92.4918 23.0961 91.885 23.0961 91.1365C23.0961 90.388 22.4904 89.7812 21.7433 89.7812C20.9963 89.7812 20.3906 90.388 20.3906 91.1365C20.3906 91.885 20.9963 92.4918 21.7433 92.4918Z" stroke="#FF0000" stroke-width="0.75" stroke-miterlimit="10"/>
<path d="M18.6359 89.3805C19.383 89.3805 19.9886 88.7737 19.9886 88.0252C19.9886 87.2767 19.383 86.6699 18.6359 86.6699C17.8888 86.6699 17.2832 87.2767 17.2832 88.0252C17.2832 88.7737 17.8888 89.3805 18.6359 89.3805Z" stroke="#FF0000" stroke-width="0.75" stroke-miterlimit="10"/>
<path d="M15.5304 86.2691C16.2775 86.2691 16.8832 85.6624 16.8832 84.9139C16.8832 84.1654 16.2775 83.5586 15.5304 83.5586C14.7834 83.5586 14.1777 84.1654 14.1777 84.9139C14.1777 85.6624 14.7834 86.2691 15.5304 86.2691Z" stroke="#FF0000" stroke-width="0.75" stroke-miterlimit="10"/>
<path d="M12.4269 83.1573C13.174 83.1573 13.7797 82.5505 13.7797 81.8021C13.7797 81.0536 13.174 80.4468 12.4269 80.4468C11.6799 80.4468 11.0742 81.0536 11.0742 81.8021C11.0742 82.5505 11.6799 83.1573 12.4269 83.1573Z" stroke="#FF0000" stroke-width="0.75" stroke-miterlimit="10"/>
<path d="M80.7375 145.374C81.4846 145.374 82.0902 144.767 82.0902 144.019C82.0902 143.27 81.4846 142.664 80.7375 142.664C79.9904 142.664 79.3848 143.27 79.3848 144.019C79.3848 144.767 79.9904 145.374 80.7375 145.374Z" stroke="#FF0000" stroke-width="0.75" stroke-miterlimit="10"/>
<path d="M77.6301 142.263C78.3771 142.263 78.9828 141.656 78.9828 140.908C78.9828 140.159 78.3771 139.552 77.6301 139.552C76.883 139.552 76.2773 140.159 76.2773 140.908C76.2773 141.656 76.883 142.263 77.6301 142.263Z" stroke="#FF0000" stroke-width="0.75" stroke-miterlimit="10"/>
<path d="M74.5246 139.151C75.2717 139.151 75.8773 138.544 75.8773 137.796C75.8773 137.047 75.2717 136.44 74.5246 136.44C73.7775 136.44 73.1719 137.047 73.1719 137.796C73.1719 138.544 73.7775 139.151 74.5246 139.151Z" stroke="#FF0000" stroke-width="0.75" stroke-miterlimit="10"/>
<path d="M71.423 136.043C72.1701 136.043 72.7757 135.436 72.7757 134.688C72.7757 133.939 72.1701 133.333 71.423 133.333C70.6759 133.333 70.0703 133.939 70.0703 134.688C70.0703 135.436 70.6759 136.043 71.423 136.043Z" stroke="#FF0000" stroke-width="0.75" stroke-miterlimit="10"/>
<path d="M68.3176 132.932C69.0646 132.932 69.6703 132.325 69.6703 131.576C69.6703 130.828 69.0646 130.221 68.3176 130.221C67.5705 130.221 66.9648 130.828 66.9648 131.576C66.9648 132.325 67.5705 132.932 68.3176 132.932Z" stroke="#FF0000" stroke-width="0.75" stroke-miterlimit="10"/>
<path d="M65.2121 129.82C65.9592 129.82 66.5648 129.213 66.5648 128.465C66.5648 127.716 65.9592 127.109 65.2121 127.109C64.465 127.109 63.8594 127.716 63.8594 128.465C63.8594 129.213 64.465 129.82 65.2121 129.82Z" stroke="#FF0000" stroke-width="0.75" stroke-miterlimit="10"/>
<path d="M62.1047 126.709C62.8518 126.709 63.4574 126.102 63.4574 125.353C63.4574 124.605 62.8518 123.998 62.1047 123.998C61.3576 123.998 60.752 124.605 60.752 125.353C60.752 126.102 61.3576 126.709 62.1047 126.709Z" stroke="#FF0000" stroke-width="0.75" stroke-miterlimit="10"/>
<path d="M59.0031 123.601C59.7502 123.601 60.3558 122.994 60.3558 122.245C60.3558 121.497 59.7502 120.89 59.0031 120.89C58.256 120.89 57.6504 121.497 57.6504 122.245C57.6504 122.994 58.256 123.601 59.0031 123.601Z" stroke="#FF0000" stroke-width="0.75" stroke-miterlimit="10"/>
<path d="M55.8957 120.489C56.6428 120.489 57.2484 119.882 57.2484 119.134C57.2484 118.385 56.6428 117.778 55.8957 117.778C55.1486 117.778 54.543 118.385 54.543 119.134C54.543 119.882 55.1486 120.489 55.8957 120.489Z" stroke="#FF0000" stroke-width="0.75" stroke-miterlimit="10"/>
<path d="M52.7902 117.378C53.5373 117.378 54.1429 116.771 54.1429 116.022C54.1429 115.274 53.5373 114.667 52.7902 114.667C52.0431 114.667 51.4375 115.274 51.4375 116.022C51.4375 116.771 52.0431 117.378 52.7902 117.378Z" stroke="#FF0000" stroke-width="0.75" stroke-miterlimit="10"/>
<path d="M49.6887 114.266C50.4357 114.266 51.0414 113.659 51.0414 112.91C51.0414 112.162 50.4357 111.555 49.6887 111.555C48.9416 111.555 48.3359 112.162 48.3359 112.91C48.3359 113.659 48.9416 114.266 49.6887 114.266Z" stroke="#FF0000" stroke-width="0.75" stroke-miterlimit="10"/>
<path d="M46.5793 111.154C47.3264 111.154 47.932 110.548 47.932 109.799C47.932 109.051 47.3264 108.444 46.5793 108.444C45.8322 108.444 45.2266 109.051 45.2266 109.799C45.2266 110.548 45.8322 111.154 46.5793 111.154Z" stroke="#FF0000" stroke-width="0.75" stroke-miterlimit="10"/>
<path d="M43.4777 108.046C44.2248 108.046 44.8304 107.439 44.8304 106.691C44.8304 105.942 44.2248 105.335 43.4777 105.335C42.7306 105.335 42.125 105.942 42.125 106.691C42.125 107.439 42.7306 108.046 43.4777 108.046Z" stroke="#FF0000" stroke-width="0.75" stroke-miterlimit="10"/>
<path d="M40.3703 104.935C41.1174 104.935 41.723 104.328 41.723 103.579C41.723 102.831 41.1174 102.224 40.3703 102.224C39.6232 102.224 39.0176 102.831 39.0176 103.579C39.0176 104.328 39.6232 104.935 40.3703 104.935Z" stroke="#FF0000" stroke-width="0.75" stroke-miterlimit="10"/>
<path d="M37.2687 101.823C38.0158 101.823 38.6214 101.217 38.6214 100.468C38.6214 99.7196 38.0158 99.1128 37.2687 99.1128C36.5216 99.1128 35.916 99.7196 35.916 100.468C35.916 101.217 36.5216 101.823 37.2687 101.823Z" stroke="#FF0000" stroke-width="0.75" stroke-miterlimit="10"/>
<path d="M34.1633 98.7115C34.9103 98.7115 35.516 98.1047 35.516 97.3563C35.516 96.6078 34.9103 96.001 34.1633 96.001C33.4162 96.001 32.8105 96.6078 32.8105 97.3563C32.8105 98.1047 33.4162 98.7115 34.1633 98.7115Z" stroke="#FF0000" stroke-width="0.75" stroke-miterlimit="10"/>
<path d="M31.0558 95.6002C31.8029 95.6002 32.4086 94.9934 32.4086 94.2449C32.4086 93.4964 31.8029 92.8896 31.0558 92.8896C30.3088 92.8896 29.7031 93.4964 29.7031 94.2449C29.7031 94.9934 30.3088 95.6002 31.0558 95.6002Z" stroke="#FF0000" stroke-width="0.75" stroke-miterlimit="10"/>
<path d="M27.9504 92.4918C28.6975 92.4918 29.3031 91.885 29.3031 91.1365C29.3031 90.388 28.6975 89.7812 27.9504 89.7812C27.2033 89.7812 26.5977 90.388 26.5977 91.1365C26.5977 91.885 27.2033 92.4918 27.9504 92.4918Z" stroke="#FF0000" stroke-width="0.75" stroke-miterlimit="10"/>
<path d="M24.8429 89.3805C25.59 89.3805 26.1957 88.7737 26.1957 88.0252C26.1957 87.2767 25.59 86.6699 24.8429 86.6699C24.0959 86.6699 23.4902 87.2767 23.4902 88.0252C23.4902 88.7737 24.0959 89.3805 24.8429 89.3805Z" stroke="#FF0000" stroke-width="0.75" stroke-miterlimit="10"/>
<path d="M21.7433 86.2691C22.4904 86.2691 23.0961 85.6624 23.0961 84.9139C23.0961 84.1654 22.4904 83.5586 21.7433 83.5586C20.9963 83.5586 20.3906 84.1654 20.3906 84.9139C20.3906 85.6624 20.9963 86.2691 21.7433 86.2691Z" stroke="#FF0000" stroke-width="0.75" stroke-miterlimit="10"/>
<path d="M18.6359 83.1573C19.383 83.1573 19.9886 82.5505 19.9886 81.8021C19.9886 81.0536 19.383 80.4468 18.6359 80.4468C17.8888 80.4468 17.2832 81.0536 17.2832 81.8021C17.2832 82.5505 17.8888 83.1573 18.6359 83.1573Z" stroke="#FF0000" stroke-width="0.75" stroke-miterlimit="10"/>
<path d="M15.5304 80.046C16.2775 80.046 16.8832 79.4392 16.8832 78.6907C16.8832 77.9422 16.2775 77.3354 15.5304 77.3354C14.7834 77.3354 14.1777 77.9422 14.1777 78.6907C14.1777 79.4392 14.7834 80.046 15.5304 80.046Z" stroke="#FF0000" stroke-width="0.75" stroke-miterlimit="10"/>
<path d="M80.7375 139.151C81.4846 139.151 82.0902 138.544 82.0902 137.796C82.0902 137.047 81.4846 136.44 80.7375 136.44C79.9904 136.44 79.3848 137.047 79.3848 137.796C79.3848 138.544 79.9904 139.151 80.7375 139.151Z" stroke="#FF0000" stroke-width="0.75" stroke-miterlimit="10"/>
<path d="M77.6301 136.043C78.3771 136.043 78.9828 135.436 78.9828 134.688C78.9828 133.939 78.3771 133.333 77.6301 133.333C76.883 133.333 76.2773 133.939 76.2773 134.688C76.2773 135.436 76.883 136.043 77.6301 136.043Z" stroke="#FF0000" stroke-width="0.75" stroke-miterlimit="10"/>
<path d="M74.5246 132.932C75.2717 132.932 75.8773 132.325 75.8773 131.576C75.8773 130.828 75.2717 130.221 74.5246 130.221C73.7775 130.221 73.1719 130.828 73.1719 131.576C73.1719 132.325 73.7775 132.932 74.5246 132.932Z" stroke="#FF0000" stroke-width="0.75" stroke-miterlimit="10"/>
<path d="M71.423 129.82C72.1701 129.82 72.7757 129.213 72.7757 128.465C72.7757 127.716 72.1701 127.109 71.423 127.109C70.6759 127.109 70.0703 127.716 70.0703 128.465C70.0703 129.213 70.6759 129.82 71.423 129.82Z" stroke="#FF0000" stroke-width="0.75" stroke-miterlimit="10"/>
<path d="M68.3176 126.709C69.0646 126.709 69.6703 126.102 69.6703 125.353C69.6703 124.605 69.0646 123.998 68.3176 123.998C67.5705 123.998 66.9648 124.605 66.9648 125.353C66.9648 126.102 67.5705 126.709 68.3176 126.709Z" stroke="#FF0000" stroke-width="0.75" stroke-miterlimit="10"/>
<path d="M65.2121 123.601C65.9592 123.601 66.5648 122.994 66.5648 122.245C66.5648 121.497 65.9592 120.89 65.2121 120.89C64.465 120.89 63.8594 121.497 63.8594 122.245C63.8594 122.994 64.465 123.601 65.2121 123.601Z" stroke="#FF0000" stroke-width="0.75" stroke-miterlimit="10"/>
<path d="M62.1047 120.489C62.8518 120.489 63.4574 119.882 63.4574 119.134C63.4574 118.385 62.8518 117.778 62.1047 117.778C61.3576 117.778 60.752 118.385 60.752 119.134C60.752 119.882 61.3576 120.489 62.1047 120.489Z" stroke="#FF0000" stroke-width="0.75" stroke-miterlimit="10"/>
<path d="M59.0031 117.378C59.7502 117.378 60.3558 116.771 60.3558 116.022C60.3558 115.274 59.7502 114.667 59.0031 114.667C58.256 114.667 57.6504 115.274 57.6504 116.022C57.6504 116.771 58.256 117.378 59.0031 117.378Z" stroke="#FF0000" stroke-width="0.75" stroke-miterlimit="10"/>
<path d="M55.8957 114.266C56.6428 114.266 57.2484 113.659 57.2484 112.91C57.2484 112.162 56.6428 111.555 55.8957 111.555C55.1486 111.555 54.543 112.162 54.543 112.91C54.543 113.659 55.1486 114.266 55.8957 114.266Z" stroke="#FF0000" stroke-width="0.75" stroke-miterlimit="10"/>
<path d="M52.7902 111.154C53.5373 111.154 54.1429 110.548 54.1429 109.799C54.1429 109.051 53.5373 108.444 52.7902 108.444C52.0431 108.444 51.4375 109.051 51.4375 109.799C51.4375 110.548 52.0431 111.154 52.7902 111.154Z" stroke="#FF0000" stroke-width="0.75" stroke-miterlimit="10"/>
<path d="M49.6887 108.046C50.4357 108.046 51.0414 107.439 51.0414 106.691C51.0414 105.942 50.4357 105.335 49.6887 105.335C48.9416 105.335 48.3359 105.942 48.3359 106.691C48.3359 107.439 48.9416 108.046 49.6887 108.046Z" stroke="#FF0000" stroke-width="0.75" stroke-miterlimit="10"/>
<path d="M46.5793 104.935C47.3264 104.935 47.932 104.328 47.932 103.579C47.932 102.831 47.3264 102.224 46.5793 102.224C45.8322 102.224 45.2266 102.831 45.2266 103.579C45.2266 104.328 45.8322 104.935 46.5793 104.935Z" stroke="#FF0000" stroke-width="0.75" stroke-miterlimit="10"/>
<path d="M43.4777 101.823C44.2248 101.823 44.8304 101.217 44.8304 100.468C44.8304 99.7196 44.2248 99.1128 43.4777 99.1128C42.7306 99.1128 42.125 99.7196 42.125 100.468C42.125 101.217 42.7306 101.823 43.4777 101.823Z" stroke="#FF0000" stroke-width="0.75" stroke-miterlimit="10"/>
<path d="M40.3703 98.7115C41.1174 98.7115 41.723 98.1047 41.723 97.3563C41.723 96.6078 41.1174 96.001 40.3703 96.001C39.6232 96.001 39.0176 96.6078 39.0176 97.3563C39.0176 98.1047 39.6232 98.7115 40.3703 98.7115Z" stroke="#FF0000" stroke-width="0.75" stroke-miterlimit="10"/>
<path d="M37.2687 95.6002C38.0158 95.6002 38.6214 94.9934 38.6214 94.2449C38.6214 93.4964 38.0158 92.8896 37.2687 92.8896C36.5216 92.8896 35.916 93.4964 35.916 94.2449C35.916 94.9934 36.5216 95.6002 37.2687 95.6002Z" stroke="#FF0000" stroke-width="0.75" stroke-miterlimit="10"/>
<path d="M34.1633 92.4918C34.9103 92.4918 35.516 91.885 35.516 91.1365C35.516 90.388 34.9103 89.7812 34.1633 89.7812C33.4162 89.7812 32.8105 90.388 32.8105 91.1365C32.8105 91.885 33.4162 92.4918 34.1633 92.4918Z" stroke="#FF0000" stroke-width="0.75" stroke-miterlimit="10"/>
<path d="M31.0558 89.3805C31.8029 89.3805 32.4086 88.7737 32.4086 88.0252C32.4086 87.2767 31.8029 86.6699 31.0558 86.6699C30.3088 86.6699 29.7031 87.2767 29.7031 88.0252C29.7031 88.7737 30.3088 89.3805 31.0558 89.3805Z" stroke="#FF0000" stroke-width="0.75" stroke-miterlimit="10"/>
<path d="M27.9504 86.2691C28.6975 86.2691 29.3031 85.6624 29.3031 84.9139C29.3031 84.1654 28.6975 83.5586 27.9504 83.5586C27.2033 83.5586 26.5977 84.1654 26.5977 84.9139C26.5977 85.6624 27.2033 86.2691 27.9504 86.2691Z" stroke="#FF0000" stroke-width="0.75" stroke-miterlimit="10"/>
<path d="M24.8429 83.1573C25.59 83.1573 26.1957 82.5505 26.1957 81.8021C26.1957 81.0536 25.59 80.4468 24.8429 80.4468C24.0959 80.4468 23.4902 81.0536 23.4902 81.8021C23.4902 82.5505 24.0959 83.1573 24.8429 83.1573Z" stroke="#FF0000" stroke-width="0.75" stroke-miterlimit="10"/>
<path d="M21.7433 80.046C22.4904 80.046 23.0961 79.4392 23.0961 78.6907C23.0961 77.9422 22.4904 77.3354 21.7433 77.3354C20.9963 77.3354 20.3906 77.9422 20.3906 78.6907C20.3906 79.4392 20.9963 80.046 21.7433 80.046Z" stroke="#FF0000" stroke-width="0.75" stroke-miterlimit="10"/>
<path d="M18.6359 76.9376C19.383 76.9376 19.9886 76.3308 19.9886 75.5823C19.9886 74.8338 19.383 74.2271 18.6359 74.2271C17.8888 74.2271 17.2832 74.8338 17.2832 75.5823C17.2832 76.3308 17.8888 76.9376 18.6359 76.9376Z" stroke="#FF0000" stroke-width="0.75" stroke-miterlimit="10"/>
<path d="M80.7375 132.932C81.4846 132.932 82.0902 132.325 82.0902 131.576C82.0902 130.828 81.4846 130.221 80.7375 130.221C79.9904 130.221 79.3848 130.828 79.3848 131.576C79.3848 132.325 79.9904 132.932 80.7375 132.932Z" stroke="#FF0000" stroke-width="0.75" stroke-miterlimit="10"/>
<path d="M77.6301 129.82C78.3771 129.82 78.9828 129.213 78.9828 128.465C78.9828 127.716 78.3771 127.109 77.6301 127.109C76.883 127.109 76.2773 127.716 76.2773 128.465C76.2773 129.213 76.883 129.82 77.6301 129.82Z" stroke="#FF0000" stroke-width="0.75" stroke-miterlimit="10"/>
<path d="M74.5246 126.709C75.2717 126.709 75.8773 126.102 75.8773 125.353C75.8773 124.605 75.2717 123.998 74.5246 123.998C73.7775 123.998 73.1719 124.605 73.1719 125.353C73.1719 126.102 73.7775 126.709 74.5246 126.709Z" stroke="#FF0000" stroke-width="0.75" stroke-miterlimit="10"/>
<path d="M71.423 123.601C72.1701 123.601 72.7757 122.994 72.7757 122.245C72.7757 121.497 72.1701 120.89 71.423 120.89C70.6759 120.89 70.0703 121.497 70.0703 122.245C70.0703 122.994 70.6759 123.601 71.423 123.601Z" stroke="#FF0000" stroke-width="0.75" stroke-miterlimit="10"/>
<path d="M68.3176 120.489C69.0646 120.489 69.6703 119.882 69.6703 119.134C69.6703 118.385 69.0646 117.778 68.3176 117.778C67.5705 117.778 66.9648 118.385 66.9648 119.134C66.9648 119.882 67.5705 120.489 68.3176 120.489Z" stroke="#FF0000" stroke-width="0.75" stroke-miterlimit="10"/>
<path d="M65.2121 117.378C65.9592 117.378 66.5648 116.771 66.5648 116.022C66.5648 115.274 65.9592 114.667 65.2121 114.667C64.465 114.667 63.8594 115.274 63.8594 116.022C63.8594 116.771 64.465 117.378 65.2121 117.378Z" stroke="#FF0000" stroke-width="0.75" stroke-miterlimit="10"/>
<path d="M62.1047 114.266C62.8518 114.266 63.4574 113.659 63.4574 112.91C63.4574 112.162 62.8518 111.555 62.1047 111.555C61.3576 111.555 60.752 112.162 60.752 112.91C60.752 113.659 61.3576 114.266 62.1047 114.266Z" stroke="#FF0000" stroke-width="0.75" stroke-miterlimit="10"/>
<path d="M59.0031 111.154C59.7502 111.154 60.3558 110.548 60.3558 109.799C60.3558 109.051 59.7502 108.444 59.0031 108.444C58.256 108.444 57.6504 109.051 57.6504 109.799C57.6504 110.548 58.256 111.154 59.0031 111.154Z" stroke="#FF0000" stroke-width="0.75" stroke-miterlimit="10"/>
<path d="M55.8957 108.046C56.6428 108.046 57.2484 107.439 57.2484 106.691C57.2484 105.942 56.6428 105.335 55.8957 105.335C55.1486 105.335 54.543 105.942 54.543 106.691C54.543 107.439 55.1486 108.046 55.8957 108.046Z" stroke="#FF0000" stroke-width="0.75" stroke-miterlimit="10"/>
<path d="M52.7902 104.935C53.5373 104.935 54.1429 104.328 54.1429 103.579C54.1429 102.831 53.5373 102.224 52.7902 102.224C52.0431 102.224 51.4375 102.831 51.4375 103.579C51.4375 104.328 52.0431 104.935 52.7902 104.935Z" stroke="#FF0000" stroke-width="0.75" stroke-miterlimit="10"/>
<path d="M49.6887 101.823C50.4357 101.823 51.0414 101.217 51.0414 100.468C51.0414 99.7196 50.4357 99.1128 49.6887 99.1128C48.9416 99.1128 48.3359 99.7196 48.3359 100.468C48.3359 101.217 48.9416 101.823 49.6887 101.823Z" stroke="#FF0000" stroke-width="0.75" stroke-miterlimit="10"/>
<path d="M46.5793 98.7115C47.3264 98.7115 47.932 98.1047 47.932 97.3563C47.932 96.6078 47.3264 96.001 46.5793 96.001C45.8322 96.001 45.2266 96.6078 45.2266 97.3563C45.2266 98.1047 45.8322 98.7115 46.5793 98.7115Z" stroke="#FF0000" stroke-width="0.75" stroke-miterlimit="10"/>
<path d="M43.4777 95.6002C44.2248 95.6002 44.8304 94.9934 44.8304 94.2449C44.8304 93.4964 44.2248 92.8896 43.4777 92.8896C42.7306 92.8896 42.125 93.4964 42.125 94.2449C42.125 94.9934 42.7306 95.6002 43.4777 95.6002Z" stroke="#FF0000" stroke-width="0.75" stroke-miterlimit="10"/>
<path d="M40.3703 92.4918C41.1174 92.4918 41.723 91.885 41.723 91.1365C41.723 90.388 41.1174 89.7812 40.3703 89.7812C39.6232 89.7812 39.0176 90.388 39.0176 91.1365C39.0176 91.885 39.6232 92.4918 40.3703 92.4918Z" stroke="#FF0000" stroke-width="0.75" stroke-miterlimit="10"/>
<path d="M37.2687 89.3805C38.0158 89.3805 38.6214 88.7737 38.6214 88.0252C38.6214 87.2767 38.0158 86.6699 37.2687 86.6699C36.5216 86.6699 35.916 87.2767 35.916 88.0252C35.916 88.7737 36.5216 89.3805 37.2687 89.3805Z" stroke="#FF0000" stroke-width="0.75" stroke-miterlimit="10"/>
<path d="M34.1633 86.2691C34.9103 86.2691 35.516 85.6624 35.516 84.9139C35.516 84.1654 34.9103 83.5586 34.1633 83.5586C33.4162 83.5586 32.8105 84.1654 32.8105 84.9139C32.8105 85.6624 33.4162 86.2691 34.1633 86.2691Z" stroke="#FF0000" stroke-width="0.75" stroke-miterlimit="10"/>
<path d="M31.0558 83.1573C31.8029 83.1573 32.4086 82.5505 32.4086 81.8021C32.4086 81.0536 31.8029 80.4468 31.0558 80.4468C30.3088 80.4468 29.7031 81.0536 29.7031 81.8021C29.7031 82.5505 30.3088 83.1573 31.0558 83.1573Z" stroke="#FF0000" stroke-width="0.75" stroke-miterlimit="10"/>
<path d="M27.9504 80.046C28.6975 80.046 29.3031 79.4392 29.3031 78.6907C29.3031 77.9422 28.6975 77.3354 27.9504 77.3354C27.2033 77.3354 26.5977 77.9422 26.5977 78.6907C26.5977 79.4392 27.2033 80.046 27.9504 80.046Z" stroke="#FF0000" stroke-width="0.75" stroke-miterlimit="10"/>
<path d="M24.8429 76.9376C25.59 76.9376 26.1957 76.3308 26.1957 75.5823C26.1957 74.8338 25.59 74.2271 24.8429 74.2271C24.0959 74.2271 23.4902 74.8338 23.4902 75.5823C23.4902 76.3308 24.0959 76.9376 24.8429 76.9376Z" stroke="#FF0000" stroke-width="0.75" stroke-miterlimit="10"/>
<path d="M21.7433 73.8263C22.4904 73.8263 23.0961 73.2195 23.0961 72.471C23.0961 71.7225 22.4904 71.1157 21.7433 71.1157C20.9963 71.1157 20.3906 71.7225 20.3906 72.471C20.3906 73.2195 20.9963 73.8263 21.7433 73.8263Z" stroke="#FF0000" stroke-width="0.75" stroke-miterlimit="10"/>
<path d="M80.7375 126.709C81.4846 126.709 82.0902 126.102 82.0902 125.353C82.0902 124.605 81.4846 123.998 80.7375 123.998C79.9904 123.998 79.3848 124.605 79.3848 125.353C79.3848 126.102 79.9904 126.709 80.7375 126.709Z" stroke="#FF0000" stroke-width="0.75" stroke-miterlimit="10"/>
<path d="M77.6301 123.601C78.3771 123.601 78.9828 122.994 78.9828 122.245C78.9828 121.497 78.3771 120.89 77.6301 120.89C76.883 120.89 76.2773 121.497 76.2773 122.245C76.2773 122.994 76.883 123.601 77.6301 123.601Z" stroke="#FF0000" stroke-width="0.75" stroke-miterlimit="10"/>
<path d="M74.5246 120.489C75.2717 120.489 75.8773 119.882 75.8773 119.134C75.8773 118.385 75.2717 117.778 74.5246 117.778C73.7775 117.778 73.1719 118.385 73.1719 119.134C73.1719 119.882 73.7775 120.489 74.5246 120.489Z" stroke="#FF0000" stroke-width="0.75" stroke-miterlimit="10"/>
<path d="M71.423 117.378C72.1701 117.378 72.7757 116.771 72.7757 116.022C72.7757 115.274 72.1701 114.667 71.423 114.667C70.6759 114.667 70.0703 115.274 70.0703 116.022C70.0703 116.771 70.6759 117.378 71.423 117.378Z" stroke="#FF0000" stroke-width="0.75" stroke-miterlimit="10"/>
<path d="M68.3176 114.266C69.0646 114.266 69.6703 113.659 69.6703 112.91C69.6703 112.162 69.0646 111.555 68.3176 111.555C67.5705 111.555 66.9648 112.162 66.9648 112.91C66.9648 113.659 67.5705 114.266 68.3176 114.266Z" stroke="#FF0000" stroke-width="0.75" stroke-miterlimit="10"/>
<path d="M65.2121 111.154C65.9592 111.154 66.5648 110.548 66.5648 109.799C66.5648 109.051 65.9592 108.444 65.2121 108.444C64.465 108.444 63.8594 109.051 63.8594 109.799C63.8594 110.548 64.465 111.154 65.2121 111.154Z" stroke="#FF0000" stroke-width="0.75" stroke-miterlimit="10"/>
<path d="M62.1047 108.046C62.8518 108.046 63.4574 107.439 63.4574 106.691C63.4574 105.942 62.8518 105.335 62.1047 105.335C61.3576 105.335 60.752 105.942 60.752 106.691C60.752 107.439 61.3576 108.046 62.1047 108.046Z" stroke="#FF0000" stroke-width="0.75" stroke-miterlimit="10"/>
<path d="M59.0031 104.935C59.7502 104.935 60.3558 104.328 60.3558 103.579C60.3558 102.831 59.7502 102.224 59.0031 102.224C58.256 102.224 57.6504 102.831 57.6504 103.579C57.6504 104.328 58.256 104.935 59.0031 104.935Z" stroke="#FF0000" stroke-width="0.75" stroke-miterlimit="10"/>
<path d="M55.8957 101.823C56.6428 101.823 57.2484 101.217 57.2484 100.468C57.2484 99.7196 56.6428 99.1128 55.8957 99.1128C55.1486 99.1128 54.543 99.7196 54.543 100.468C54.543 101.217 55.1486 101.823 55.8957 101.823Z" stroke="#FF0000" stroke-width="0.75" stroke-miterlimit="10"/>
<path d="M52.7902 98.7115C53.5373 98.7115 54.1429 98.1047 54.1429 97.3563C54.1429 96.6078 53.5373 96.001 52.7902 96.001C52.0431 96.001 51.4375 96.6078 51.4375 97.3563C51.4375 98.1047 52.0431 98.7115 52.7902 98.7115Z" stroke="#FF0000" stroke-width="0.75" stroke-miterlimit="10"/>
<path d="M49.6887 95.6002C50.4357 95.6002 51.0414 94.9934 51.0414 94.2449C51.0414 93.4964 50.4357 92.8896 49.6887 92.8896C48.9416 92.8896 48.3359 93.4964 48.3359 94.2449C48.3359 94.9934 48.9416 95.6002 49.6887 95.6002Z" stroke="#FF0000" stroke-width="0.75" stroke-miterlimit="10"/>
<path d="M46.5793 92.4918C47.3264 92.4918 47.932 91.885 47.932 91.1365C47.932 90.388 47.3264 89.7812 46.5793 89.7812C45.8322 89.7812 45.2266 90.388 45.2266 91.1365C45.2266 91.885 45.8322 92.4918 46.5793 92.4918Z" stroke="#FF0000" stroke-width="0.75" stroke-miterlimit="10"/>
<path d="M43.4777 89.3805C44.2248 89.3805 44.8304 88.7737 44.8304 88.0252C44.8304 87.2767 44.2248 86.6699 43.4777 86.6699C42.7306 86.6699 42.125 87.2767 42.125 88.0252C42.125 88.7737 42.7306 89.3805 43.4777 89.3805Z" stroke="#FF0000" stroke-width="0.75" stroke-miterlimit="10"/>
<path d="M40.3703 86.2691C41.1174 86.2691 41.723 85.6624 41.723 84.9139C41.723 84.1654 41.1174 83.5586 40.3703 83.5586C39.6232 83.5586 39.0176 84.1654 39.0176 84.9139C39.0176 85.6624 39.6232 86.2691 40.3703 86.2691Z" stroke="#FF0000" stroke-width="0.75" stroke-miterlimit="10"/>
<path d="M37.2687 83.1573C38.0158 83.1573 38.6214 82.5505 38.6214 81.8021C38.6214 81.0536 38.0158 80.4468 37.2687 80.4468C36.5216 80.4468 35.916 81.0536 35.916 81.8021C35.916 82.5505 36.5216 83.1573 37.2687 83.1573Z" stroke="#FF0000" stroke-width="0.75" stroke-miterlimit="10"/>
<path d="M34.1633 80.046C34.9103 80.046 35.516 79.4392 35.516 78.6907C35.516 77.9422 34.9103 77.3354 34.1633 77.3354C33.4162 77.3354 32.8105 77.9422 32.8105 78.6907C32.8105 79.4392 33.4162 80.046 34.1633 80.046Z" stroke="#FF0000" stroke-width="0.75" stroke-miterlimit="10"/>
<path d="M31.0558 76.9376C31.8029 76.9376 32.4086 76.3308 32.4086 75.5823C32.4086 74.8338 31.8029 74.2271 31.0558 74.2271C30.3088 74.2271 29.7031 74.8338 29.7031 75.5823C29.7031 76.3308 30.3088 76.9376 31.0558 76.9376Z" stroke="#FF0000" stroke-width="0.75" stroke-miterlimit="10"/>
<path d="M27.9504 73.8263C28.6975 73.8263 29.3031 73.2195 29.3031 72.471C29.3031 71.7225 28.6975 71.1157 27.9504 71.1157C27.2033 71.1157 26.5977 71.7225 26.5977 72.471C26.5977 73.2195 27.2033 73.8263 27.9504 73.8263Z" stroke="#FF0000" stroke-width="0.75" stroke-miterlimit="10"/>
<path d="M24.8429 70.7149C25.59 70.7149 26.1957 70.1082 26.1957 69.3597C26.1957 68.6112 25.59 68.0044 24.8429 68.0044C24.0959 68.0044 23.4902 68.6112 23.4902 69.3597C23.4902 70.1082 24.0959 70.7149 24.8429 70.7149Z" stroke="#FF0000" stroke-width="0.75" stroke-miterlimit="10"/>
<path d="M80.7375 120.489C81.4846 120.489 82.0902 119.882 82.0902 119.134C82.0902 118.385 81.4846 117.778 80.7375 117.778C79.9904 117.778 79.3848 118.385 79.3848 119.134C79.3848 119.882 79.9904 120.489 80.7375 120.489Z" stroke="#FF0000" stroke-width="0.75" stroke-miterlimit="10"/>
<path d="M77.6301 117.378C78.3771 117.378 78.9828 116.771 78.9828 116.022C78.9828 115.274 78.3771 114.667 77.6301 114.667C76.883 114.667 76.2773 115.274 76.2773 116.022C76.2773 116.771 76.883 117.378 77.6301 117.378Z" stroke="#FF0000" stroke-width="0.75" stroke-miterlimit="10"/>
<path d="M74.5246 114.266C75.2717 114.266 75.8773 113.659 75.8773 112.91C75.8773 112.162 75.2717 111.555 74.5246 111.555C73.7775 111.555 73.1719 112.162 73.1719 112.91C73.1719 113.659 73.7775 114.266 74.5246 114.266Z" stroke="#FF0000" stroke-width="0.75" stroke-miterlimit="10"/>
<path d="M71.423 111.154C72.1701 111.154 72.7757 110.548 72.7757 109.799C72.7757 109.051 72.1701 108.444 71.423 108.444C70.6759 108.444 70.0703 109.051 70.0703 109.799C70.0703 110.548 70.6759 111.154 71.423 111.154Z" stroke="#FF0000" stroke-width="0.75" stroke-miterlimit="10"/>
<path d="M68.3176 108.046C69.0646 108.046 69.6703 107.439 69.6703 106.691C69.6703 105.942 69.0646 105.335 68.3176 105.335C67.5705 105.335 66.9648 105.942 66.9648 106.691C66.9648 107.439 67.5705 108.046 68.3176 108.046Z" stroke="#FF0000" stroke-width="0.75" stroke-miterlimit="10"/>
<path d="M65.2121 104.935C65.9592 104.935 66.5648 104.328 66.5648 103.579C66.5648 102.831 65.9592 102.224 65.2121 102.224C64.465 102.224 63.8594 102.831 63.8594 103.579C63.8594 104.328 64.465 104.935 65.2121 104.935Z" stroke="#FF0000" stroke-width="0.75" stroke-miterlimit="10"/>
<path d="M62.1047 101.823C62.8518 101.823 63.4574 101.217 63.4574 100.468C63.4574 99.7196 62.8518 99.1128 62.1047 99.1128C61.3576 99.1128 60.752 99.7196 60.752 100.468C60.752 101.217 61.3576 101.823 62.1047 101.823Z" stroke="#FF0000" stroke-width="0.75" stroke-miterlimit="10"/>
<path d="M59.0031 98.7115C59.7502 98.7115 60.3558 98.1047 60.3558 97.3563C60.3558 96.6078 59.7502 96.001 59.0031 96.001C58.256 96.001 57.6504 96.6078 57.6504 97.3563C57.6504 98.1047 58.256 98.7115 59.0031 98.7115Z" stroke="#FF0000" stroke-width="0.75" stroke-miterlimit="10"/>
<path d="M55.8957 95.6002C56.6428 95.6002 57.2484 94.9934 57.2484 94.2449C57.2484 93.4964 56.6428 92.8896 55.8957 92.8896C55.1486 92.8896 54.543 93.4964 54.543 94.2449C54.543 94.9934 55.1486 95.6002 55.8957 95.6002Z" stroke="#FF0000" stroke-width="0.75" stroke-miterlimit="10"/>
<path d="M52.7902 92.4918C53.5373 92.4918 54.1429 91.885 54.1429 91.1365C54.1429 90.388 53.5373 89.7812 52.7902 89.7812C52.0431 89.7812 51.4375 90.388 51.4375 91.1365C51.4375 91.885 52.0431 92.4918 52.7902 92.4918Z" stroke="#FF0000" stroke-width="0.75" stroke-miterlimit="10"/>
<path d="M49.6887 89.3805C50.4357 89.3805 51.0414 88.7737 51.0414 88.0252C51.0414 87.2767 50.4357 86.6699 49.6887 86.6699C48.9416 86.6699 48.3359 87.2767 48.3359 88.0252C48.3359 88.7737 48.9416 89.3805 49.6887 89.3805Z" stroke="#FF0000" stroke-width="0.75" stroke-miterlimit="10"/>
<path d="M46.5793 86.2691C47.3264 86.2691 47.932 85.6624 47.932 84.9139C47.932 84.1654 47.3264 83.5586 46.5793 83.5586C45.8322 83.5586 45.2266 84.1654 45.2266 84.9139C45.2266 85.6624 45.8322 86.2691 46.5793 86.2691Z" stroke="#FF0000" stroke-width="0.75" stroke-miterlimit="10"/>
<path d="M43.4777 83.1573C44.2248 83.1573 44.8304 82.5505 44.8304 81.8021C44.8304 81.0536 44.2248 80.4468 43.4777 80.4468C42.7306 80.4468 42.125 81.0536 42.125 81.8021C42.125 82.5505 42.7306 83.1573 43.4777 83.1573Z" stroke="#FF0000" stroke-width="0.75" stroke-miterlimit="10"/>
<path d="M40.3703 80.046C41.1174 80.046 41.723 79.4392 41.723 78.6907C41.723 77.9422 41.1174 77.3354 40.3703 77.3354C39.6232 77.3354 39.0176 77.9422 39.0176 78.6907C39.0176 79.4392 39.6232 80.046 40.3703 80.046Z" stroke="#FF0000" stroke-width="0.75" stroke-miterlimit="10"/>
<path d="M37.2687 76.9376C38.0158 76.9376 38.6214 76.3308 38.6214 75.5823C38.6214 74.8338 38.0158 74.2271 37.2687 74.2271C36.5216 74.2271 35.916 74.8338 35.916 75.5823C35.916 76.3308 36.5216 76.9376 37.2687 76.9376Z" stroke="#FF0000" stroke-width="0.75" stroke-miterlimit="10"/>
<path d="M34.1633 73.8263C34.9103 73.8263 35.516 73.2195 35.516 72.471C35.516 71.7225 34.9103 71.1157 34.1633 71.1157C33.4162 71.1157 32.8105 71.7225 32.8105 72.471C32.8105 73.2195 33.4162 73.8263 34.1633 73.8263Z" stroke="#FF0000" stroke-width="0.75" stroke-miterlimit="10"/>
<path d="M31.0558 70.7149C31.8029 70.7149 32.4086 70.1082 32.4086 69.3597C32.4086 68.6112 31.8029 68.0044 31.0558 68.0044C30.3088 68.0044 29.7031 68.6112 29.7031 69.3597C29.7031 70.1082 30.3088 70.7149 31.0558 70.7149Z" stroke="#FF0000" stroke-width="0.75" stroke-miterlimit="10"/>
<path d="M27.9504 67.6036C28.6975 67.6036 29.3031 66.9968 29.3031 66.2483C29.3031 65.4998 28.6975 64.8931 27.9504 64.8931C27.2033 64.8931 26.5977 65.4998 26.5977 66.2483C26.5977 66.9968 27.2033 67.6036 27.9504 67.6036Z" stroke="#FF0000" stroke-width="0.75" stroke-miterlimit="10"/>
<path d="M80.7375 114.266C81.4846 114.266 82.0902 113.659 82.0902 112.91C82.0902 112.162 81.4846 111.555 80.7375 111.555C79.9904 111.555 79.3848 112.162 79.3848 112.91C79.3848 113.659 79.9904 114.266 80.7375 114.266Z" stroke="#FF0000" stroke-width="0.75" stroke-miterlimit="10"/>
<path d="M77.6301 111.154C78.3771 111.154 78.9828 110.548 78.9828 109.799C78.9828 109.051 78.3771 108.444 77.6301 108.444C76.883 108.444 76.2773 109.051 76.2773 109.799C76.2773 110.548 76.883 111.154 77.6301 111.154Z" stroke="#FF0000" stroke-width="0.75" stroke-miterlimit="10"/>
<path d="M74.5246 108.046C75.2717 108.046 75.8773 107.439 75.8773 106.691C75.8773 105.942 75.2717 105.335 74.5246 105.335C73.7775 105.335 73.1719 105.942 73.1719 106.691C73.1719 107.439 73.7775 108.046 74.5246 108.046Z" stroke="#FF0000" stroke-width="0.75" stroke-miterlimit="10"/>
<path d="M71.423 104.935C72.1701 104.935 72.7757 104.328 72.7757 103.579C72.7757 102.831 72.1701 102.224 71.423 102.224C70.6759 102.224 70.0703 102.831 70.0703 103.579C70.0703 104.328 70.6759 104.935 71.423 104.935Z" stroke="#FF0000" stroke-width="0.75" stroke-miterlimit="10"/>
<path d="M68.3176 101.823C69.0646 101.823 69.6703 101.217 69.6703 100.468C69.6703 99.7196 69.0646 99.1128 68.3176 99.1128C67.5705 99.1128 66.9648 99.7196 66.9648 100.468C66.9648 101.217 67.5705 101.823 68.3176 101.823Z" stroke="#FF0000" stroke-width="0.75" stroke-miterlimit="10"/>
<path d="M65.2121 98.7115C65.9592 98.7115 66.5648 98.1047 66.5648 97.3563C66.5648 96.6078 65.9592 96.001 65.2121 96.001C64.465 96.001 63.8594 96.6078 63.8594 97.3563C63.8594 98.1047 64.465 98.7115 65.2121 98.7115Z" stroke="#FF0000" stroke-width="0.75" stroke-miterlimit="10"/>
<path d="M62.1047 95.6002C62.8518 95.6002 63.4574 94.9934 63.4574 94.2449C63.4574 93.4964 62.8518 92.8896 62.1047 92.8896C61.3576 92.8896 60.752 93.4964 60.752 94.2449C60.752 94.9934 61.3576 95.6002 62.1047 95.6002Z" stroke="#FF0000" stroke-width="0.75" stroke-miterlimit="10"/>
<path d="M59.0031 92.4918C59.7502 92.4918 60.3558 91.885 60.3558 91.1365C60.3558 90.388 59.7502 89.7812 59.0031 89.7812C58.256 89.7812 57.6504 90.388 57.6504 91.1365C57.6504 91.885 58.256 92.4918 59.0031 92.4918Z" stroke="#FF0000" stroke-width="0.75" stroke-miterlimit="10"/>
<path d="M55.8957 89.3805C56.6428 89.3805 57.2484 88.7737 57.2484 88.0252C57.2484 87.2767 56.6428 86.6699 55.8957 86.6699C55.1486 86.6699 54.543 87.2767 54.543 88.0252C54.543 88.7737 55.1486 89.3805 55.8957 89.3805Z" stroke="#FF0000" stroke-width="0.75" stroke-miterlimit="10"/>
<path d="M52.7902 86.2691C53.5373 86.2691 54.1429 85.6624 54.1429 84.9139C54.1429 84.1654 53.5373 83.5586 52.7902 83.5586C52.0431 83.5586 51.4375 84.1654 51.4375 84.9139C51.4375 85.6624 52.0431 86.2691 52.7902 86.2691Z" stroke="#FF0000" stroke-width="0.75" stroke-miterlimit="10"/>
<path d="M49.6887 83.1573C50.4357 83.1573 51.0414 82.5505 51.0414 81.8021C51.0414 81.0536 50.4357 80.4468 49.6887 80.4468C48.9416 80.4468 48.3359 81.0536 48.3359 81.8021C48.3359 82.5505 48.9416 83.1573 49.6887 83.1573Z" stroke="#FF0000" stroke-width="0.75" stroke-miterlimit="10"/>
<path d="M46.5793 80.046C47.3264 80.046 47.932 79.4392 47.932 78.6907C47.932 77.9422 47.3264 77.3354 46.5793 77.3354C45.8322 77.3354 45.2266 77.9422 45.2266 78.6907C45.2266 79.4392 45.8322 80.046 46.5793 80.046Z" stroke="#FF0000" stroke-width="0.75" stroke-miterlimit="10"/>
<path d="M43.4777 76.9376C44.2248 76.9376 44.8304 76.3308 44.8304 75.5823C44.8304 74.8338 44.2248 74.2271 43.4777 74.2271C42.7306 74.2271 42.125 74.8338 42.125 75.5823C42.125 76.3308 42.7306 76.9376 43.4777 76.9376Z" stroke="#FF0000" stroke-width="0.75" stroke-miterlimit="10"/>
<path d="M40.3703 73.8263C41.1174 73.8263 41.723 73.2195 41.723 72.471C41.723 71.7225 41.1174 71.1157 40.3703 71.1157C39.6232 71.1157 39.0176 71.7225 39.0176 72.471C39.0176 73.2195 39.6232 73.8263 40.3703 73.8263Z" stroke="#FF0000" stroke-width="0.75" stroke-miterlimit="10"/>
<path d="M37.2687 70.7149C38.0158 70.7149 38.6214 70.1082 38.6214 69.3597C38.6214 68.6112 38.0158 68.0044 37.2687 68.0044C36.5216 68.0044 35.916 68.6112 35.916 69.3597C35.916 70.1082 36.5216 70.7149 37.2687 70.7149Z" stroke="#FF0000" stroke-width="0.75" stroke-miterlimit="10"/>
<path d="M34.1633 67.6036C34.9103 67.6036 35.516 66.9968 35.516 66.2483C35.516 65.4998 34.9103 64.8931 34.1633 64.8931C33.4162 64.8931 32.8105 65.4998 32.8105 66.2483C32.8105 66.9968 33.4162 67.6036 34.1633 67.6036Z" stroke="#FF0000" stroke-width="0.75" stroke-miterlimit="10"/>
<path d="M31.0558 64.4918C31.8029 64.4918 32.4086 63.885 32.4086 63.1365C32.4086 62.388 31.8029 61.7812 31.0558 61.7812C30.3088 61.7812 29.7031 62.388 29.7031 63.1365C29.7031 63.885 30.3088 64.4918 31.0558 64.4918Z" stroke="#FF0000" stroke-width="0.75" stroke-miterlimit="10"/>
<path d="M80.7375 108.046C81.4846 108.046 82.0902 107.439 82.0902 106.691C82.0902 105.942 81.4846 105.335 80.7375 105.335C79.9904 105.335 79.3848 105.942 79.3848 106.691C79.3848 107.439 79.9904 108.046 80.7375 108.046Z" stroke="#FF0000" stroke-width="0.75" stroke-miterlimit="10"/>
<path d="M77.6301 104.935C78.3771 104.935 78.9828 104.328 78.9828 103.579C78.9828 102.831 78.3771 102.224 77.6301 102.224C76.883 102.224 76.2773 102.831 76.2773 103.579C76.2773 104.328 76.883 104.935 77.6301 104.935Z" stroke="#FF0000" stroke-width="0.75" stroke-miterlimit="10"/>
<path d="M74.5246 101.823C75.2717 101.823 75.8773 101.217 75.8773 100.468C75.8773 99.7196 75.2717 99.1128 74.5246 99.1128C73.7775 99.1128 73.1719 99.7196 73.1719 100.468C73.1719 101.217 73.7775 101.823 74.5246 101.823Z" stroke="#FF0000" stroke-width="0.75" stroke-miterlimit="10"/>
<path d="M71.423 98.7115C72.1701 98.7115 72.7757 98.1047 72.7757 97.3563C72.7757 96.6078 72.1701 96.001 71.423 96.001C70.6759 96.001 70.0703 96.6078 70.0703 97.3563C70.0703 98.1047 70.6759 98.7115 71.423 98.7115Z" stroke="#FF0000" stroke-width="0.75" stroke-miterlimit="10"/>
<path d="M68.3176 95.6002C69.0646 95.6002 69.6703 94.9934 69.6703 94.2449C69.6703 93.4964 69.0646 92.8896 68.3176 92.8896C67.5705 92.8896 66.9648 93.4964 66.9648 94.2449C66.9648 94.9934 67.5705 95.6002 68.3176 95.6002Z" stroke="#FF0000" stroke-width="0.75" stroke-miterlimit="10"/>
<path d="M65.2121 92.4918C65.9592 92.4918 66.5648 91.885 66.5648 91.1365C66.5648 90.388 65.9592 89.7812 65.2121 89.7812C64.465 89.7812 63.8594 90.388 63.8594 91.1365C63.8594 91.885 64.465 92.4918 65.2121 92.4918Z" stroke="#FF0000" stroke-width="0.75" stroke-miterlimit="10"/>
<path d="M62.1047 89.3805C62.8518 89.3805 63.4574 88.7737 63.4574 88.0252C63.4574 87.2767 62.8518 86.6699 62.1047 86.6699C61.3576 86.6699 60.752 87.2767 60.752 88.0252C60.752 88.7737 61.3576 89.3805 62.1047 89.3805Z" stroke="#FF0000" stroke-width="0.75" stroke-miterlimit="10"/>
<path d="M59.0031 86.2691C59.7502 86.2691 60.3558 85.6624 60.3558 84.9139C60.3558 84.1654 59.7502 83.5586 59.0031 83.5586C58.256 83.5586 57.6504 84.1654 57.6504 84.9139C57.6504 85.6624 58.256 86.2691 59.0031 86.2691Z" stroke="#FF0000" stroke-width="0.75" stroke-miterlimit="10"/>
<path d="M55.8957 83.1573C56.6428 83.1573 57.2484 82.5505 57.2484 81.8021C57.2484 81.0536 56.6428 80.4468 55.8957 80.4468C55.1486 80.4468 54.543 81.0536 54.543 81.8021C54.543 82.5505 55.1486 83.1573 55.8957 83.1573Z" stroke="#FF0000" stroke-width="0.75" stroke-miterlimit="10"/>
<path d="M52.7902 80.046C53.5373 80.046 54.1429 79.4392 54.1429 78.6907C54.1429 77.9422 53.5373 77.3354 52.7902 77.3354C52.0431 77.3354 51.4375 77.9422 51.4375 78.6907C51.4375 79.4392 52.0431 80.046 52.7902 80.046Z" stroke="#FF0000" stroke-width="0.75" stroke-miterlimit="10"/>
<path d="M49.6887 76.9376C50.4357 76.9376 51.0414 76.3308 51.0414 75.5823C51.0414 74.8338 50.4357 74.2271 49.6887 74.2271C48.9416 74.2271 48.3359 74.8338 48.3359 75.5823C48.3359 76.3308 48.9416 76.9376 49.6887 76.9376Z" stroke="#FF0000" stroke-width="0.75" stroke-miterlimit="10"/>
<path d="M46.5793 73.8263C47.3264 73.8263 47.932 73.2195 47.932 72.471C47.932 71.7225 47.3264 71.1157 46.5793 71.1157C45.8322 71.1157 45.2266 71.7225 45.2266 72.471C45.2266 73.2195 45.8322 73.8263 46.5793 73.8263Z" stroke="#FF0000" stroke-width="0.75" stroke-miterlimit="10"/>
<path d="M43.4777 70.7149C44.2248 70.7149 44.8304 70.1082 44.8304 69.3597C44.8304 68.6112 44.2248 68.0044 43.4777 68.0044C42.7306 68.0044 42.125 68.6112 42.125 69.3597C42.125 70.1082 42.7306 70.7149 43.4777 70.7149Z" stroke="#FF0000" stroke-width="0.75" stroke-miterlimit="10"/>
<path d="M40.3703 67.6036C41.1174 67.6036 41.723 66.9968 41.723 66.2483C41.723 65.4998 41.1174 64.8931 40.3703 64.8931C39.6232 64.8931 39.0176 65.4998 39.0176 66.2483C39.0176 66.9968 39.6232 67.6036 40.3703 67.6036Z" stroke="#FF0000" stroke-width="0.75" stroke-miterlimit="10"/>
<path d="M37.2687 64.4918C38.0158 64.4918 38.6214 63.885 38.6214 63.1365C38.6214 62.388 38.0158 61.7812 37.2687 61.7812C36.5216 61.7812 35.916 62.388 35.916 63.1365C35.916 63.885 36.5216 64.4918 37.2687 64.4918Z" stroke="#FF0000" stroke-width="0.75" stroke-miterlimit="10"/>
<path d="M34.1633 61.3839C34.9103 61.3839 35.516 60.7771 35.516 60.0286C35.516 59.2801 34.9103 58.6733 34.1633 58.6733C33.4162 58.6733 32.8105 59.2801 32.8105 60.0286C32.8105 60.7771 33.4162 61.3839 34.1633 61.3839Z" stroke="#FF0000" stroke-width="0.75" stroke-miterlimit="10"/>
<path d="M62.1047 83.1573C62.8518 83.1573 63.4574 82.5505 63.4574 81.8021C63.4574 81.0536 62.8518 80.4468 62.1047 80.4468C61.3576 80.4468 60.752 81.0536 60.752 81.8021C60.752 82.5505 61.3576 83.1573 62.1047 83.1573Z" stroke="#FF0000" stroke-width="0.75" stroke-miterlimit="10"/>
<path d="M59.0031 80.046C59.7502 80.046 60.3558 79.4392 60.3558 78.6907C60.3558 77.9422 59.7502 77.3354 59.0031 77.3354C58.256 77.3354 57.6504 77.9422 57.6504 78.6907C57.6504 79.4392 58.256 80.046 59.0031 80.046Z" stroke="#FF0000" stroke-width="0.75" stroke-miterlimit="10"/>
<path d="M55.8957 76.9376C56.6428 76.9376 57.2484 76.3308 57.2484 75.5823C57.2484 74.8338 56.6428 74.2271 55.8957 74.2271C55.1486 74.2271 54.543 74.8338 54.543 75.5823C54.543 76.3308 55.1486 76.9376 55.8957 76.9376Z" stroke="#FF0000" stroke-width="0.75" stroke-miterlimit="10"/>
<path d="M52.7902 73.8263C53.5373 73.8263 54.1429 73.2195 54.1429 72.471C54.1429 71.7225 53.5373 71.1157 52.7902 71.1157C52.0431 71.1157 51.4375 71.7225 51.4375 72.471C51.4375 73.2195 52.0431 73.8263 52.7902 73.8263Z" stroke="#FF0000" stroke-width="0.75" stroke-miterlimit="10"/>
<path d="M49.6887 70.7149C50.4357 70.7149 51.0414 70.1082 51.0414 69.3597C51.0414 68.6112 50.4357 68.0044 49.6887 68.0044C48.9416 68.0044 48.3359 68.6112 48.3359 69.3597C48.3359 70.1082 48.9416 70.7149 49.6887 70.7149Z" stroke="#FF0000" stroke-width="0.75" stroke-miterlimit="10"/>
<path d="M46.5793 67.6036C47.3264 67.6036 47.932 66.9968 47.932 66.2483C47.932 65.4998 47.3264 64.8931 46.5793 64.8931C45.8322 64.8931 45.2266 65.4998 45.2266 66.2483C45.2266 66.9968 45.8322 67.6036 46.5793 67.6036Z" stroke="#FF0000" stroke-width="0.75" stroke-miterlimit="10"/>
<path d="M43.4777 64.4918C44.2248 64.4918 44.8304 63.885 44.8304 63.1365C44.8304 62.388 44.2248 61.7812 43.4777 61.7812C42.7306 61.7812 42.125 62.388 42.125 63.1365C42.125 63.885 42.7306 64.4918 43.4777 64.4918Z" stroke="#FF0000" stroke-width="0.75" stroke-miterlimit="10"/>
<path d="M40.3703 61.3839C41.1174 61.3839 41.723 60.7771 41.723 60.0286C41.723 59.2801 41.1174 58.6733 40.3703 58.6733C39.6232 58.6733 39.0176 59.2801 39.0176 60.0286C39.0176 60.7771 39.6232 61.3839 40.3703 61.3839Z" stroke="#FF0000" stroke-width="0.75" stroke-miterlimit="10"/>
<path d="M37.2687 58.2721C38.0158 58.2721 38.6214 57.6653 38.6214 56.9168C38.6214 56.1683 38.0158 55.5615 37.2687 55.5615C36.5216 55.5615 35.916 56.1683 35.916 56.9168C35.916 57.6653 36.5216 58.2721 37.2687 58.2721Z" stroke="#FF0000" stroke-width="0.75" stroke-miterlimit="10"/>
<path d="M65.2121 80.046C65.9592 80.046 66.5648 79.4392 66.5648 78.6907C66.5648 77.9422 65.9592 77.3354 65.2121 77.3354C64.465 77.3354 63.8594 77.9422 63.8594 78.6907C63.8594 79.4392 64.465 80.046 65.2121 80.046Z" stroke="#FF0000" stroke-width="0.75" stroke-miterlimit="10"/>
<path d="M62.1047 76.9376C62.8518 76.9376 63.4574 76.3308 63.4574 75.5823C63.4574 74.8338 62.8518 74.2271 62.1047 74.2271C61.3576 74.2271 60.752 74.8338 60.752 75.5823C60.752 76.3308 61.3576 76.9376 62.1047 76.9376Z" stroke="#FF0000" stroke-width="0.75" stroke-miterlimit="10"/>
<path d="M59.0031 73.8263C59.7502 73.8263 60.3558 73.2195 60.3558 72.471C60.3558 71.7225 59.7502 71.1157 59.0031 71.1157C58.256 71.1157 57.6504 71.7225 57.6504 72.471C57.6504 73.2195 58.256 73.8263 59.0031 73.8263Z" stroke="#FF0000" stroke-width="0.75" stroke-miterlimit="10"/>
<path d="M55.8957 70.7149C56.6428 70.7149 57.2484 70.1082 57.2484 69.3597C57.2484 68.6112 56.6428 68.0044 55.8957 68.0044C55.1486 68.0044 54.543 68.6112 54.543 69.3597C54.543 70.1082 55.1486 70.7149 55.8957 70.7149Z" stroke="#FF0000" stroke-width="0.75" stroke-miterlimit="10"/>
<path d="M52.7902 67.6036C53.5373 67.6036 54.1429 66.9968 54.1429 66.2483C54.1429 65.4998 53.5373 64.8931 52.7902 64.8931C52.0431 64.8931 51.4375 65.4998 51.4375 66.2483C51.4375 66.9968 52.0431 67.6036 52.7902 67.6036Z" stroke="#FF0000" stroke-width="0.75" stroke-miterlimit="10"/>
<path d="M49.6887 64.4918C50.4357 64.4918 51.0414 63.885 51.0414 63.1365C51.0414 62.388 50.4357 61.7812 49.6887 61.7812C48.9416 61.7812 48.3359 62.388 48.3359 63.1365C48.3359 63.885 48.9416 64.4918 49.6887 64.4918Z" stroke="#FF0000" stroke-width="0.75" stroke-miterlimit="10"/>
<path d="M46.5793 61.3839C47.3264 61.3839 47.932 60.7771 47.932 60.0286C47.932 59.2801 47.3264 58.6733 46.5793 58.6733C45.8322 58.6733 45.2266 59.2801 45.2266 60.0286C45.2266 60.7771 45.8322 61.3839 46.5793 61.3839Z" stroke="#FF0000" stroke-width="0.75" stroke-miterlimit="10"/>
<path d="M43.4777 58.2721C44.2248 58.2721 44.8304 57.6653 44.8304 56.9168C44.8304 56.1683 44.2248 55.5615 43.4777 55.5615C42.7306 55.5615 42.125 56.1683 42.125 56.9168C42.125 57.6653 42.7306 58.2721 43.4777 58.2721Z" stroke="#FF0000" stroke-width="0.75" stroke-miterlimit="10"/>
<path d="M40.3703 55.1607C41.1174 55.1607 41.723 54.554 41.723 53.8055C41.723 53.057 41.1174 52.4502 40.3703 52.4502C39.6232 52.4502 39.0176 53.057 39.0176 53.8055C39.0176 54.554 39.6232 55.1607 40.3703 55.1607Z" stroke="#FF0000" stroke-width="0.75" stroke-miterlimit="10"/>
<path d="M68.3176 76.9376C69.0646 76.9376 69.6703 76.3308 69.6703 75.5823C69.6703 74.8338 69.0646 74.2271 68.3176 74.2271C67.5705 74.2271 66.9648 74.8338 66.9648 75.5823C66.9648 76.3308 67.5705 76.9376 68.3176 76.9376Z" stroke="#FF0000" stroke-width="0.75" stroke-miterlimit="10"/>
<path d="M65.2121 73.8263C65.9592 73.8263 66.5648 73.2195 66.5648 72.471C66.5648 71.7225 65.9592 71.1157 65.2121 71.1157C64.465 71.1157 63.8594 71.7225 63.8594 72.471C63.8594 73.2195 64.465 73.8263 65.2121 73.8263Z" stroke="#FF0000" stroke-width="0.75" stroke-miterlimit="10"/>
<path d="M62.1047 70.7149C62.8518 70.7149 63.4574 70.1082 63.4574 69.3597C63.4574 68.6112 62.8518 68.0044 62.1047 68.0044C61.3576 68.0044 60.752 68.6112 60.752 69.3597C60.752 70.1082 61.3576 70.7149 62.1047 70.7149Z" stroke="#FF0000" stroke-width="0.75" stroke-miterlimit="10"/>
<path d="M59.0031 67.6036C59.7502 67.6036 60.3558 66.9968 60.3558 66.2483C60.3558 65.4998 59.7502 64.8931 59.0031 64.8931C58.256 64.8931 57.6504 65.4998 57.6504 66.2483C57.6504 66.9968 58.256 67.6036 59.0031 67.6036Z" stroke="#FF0000" stroke-width="0.75" stroke-miterlimit="10"/>
<path d="M55.8957 64.4918C56.6428 64.4918 57.2484 63.885 57.2484 63.1365C57.2484 62.388 56.6428 61.7812 55.8957 61.7812C55.1486 61.7812 54.543 62.388 54.543 63.1365C54.543 63.885 55.1486 64.4918 55.8957 64.4918Z" stroke="#FF0000" stroke-width="0.75" stroke-miterlimit="10"/>
<path d="M52.7902 61.3839C53.5373 61.3839 54.1429 60.7771 54.1429 60.0286C54.1429 59.2801 53.5373 58.6733 52.7902 58.6733C52.0431 58.6733 51.4375 59.2801 51.4375 60.0286C51.4375 60.7771 52.0431 61.3839 52.7902 61.3839Z" stroke="#FF0000" stroke-width="0.75" stroke-miterlimit="10"/>
<path d="M49.6887 58.2721C50.4357 58.2721 51.0414 57.6653 51.0414 56.9168C51.0414 56.1683 50.4357 55.5615 49.6887 55.5615C48.9416 55.5615 48.3359 56.1683 48.3359 56.9168C48.3359 57.6653 48.9416 58.2721 49.6887 58.2721Z" stroke="#FF0000" stroke-width="0.75" stroke-miterlimit="10"/>
<path d="M46.5793 55.1607C47.3264 55.1607 47.932 54.554 47.932 53.8055C47.932 53.057 47.3264 52.4502 46.5793 52.4502C45.8322 52.4502 45.2266 53.057 45.2266 53.8055C45.2266 54.554 45.8322 55.1607 46.5793 55.1607Z" stroke="#FF0000" stroke-width="0.75" stroke-miterlimit="10"/>
<path d="M43.4777 52.0494C44.2248 52.0494 44.8304 51.4426 44.8304 50.6941C44.8304 49.9456 44.2248 49.3389 43.4777 49.3389C42.7306 49.3389 42.125 49.9456 42.125 50.6941C42.125 51.4426 42.7306 52.0494 43.4777 52.0494Z" stroke="#FF0000" stroke-width="0.75" stroke-miterlimit="10"/>
<path d="M71.423 73.8263C72.1701 73.8263 72.7757 73.2195 72.7757 72.471C72.7757 71.7225 72.1701 71.1157 71.423 71.1157C70.6759 71.1157 70.0703 71.7225 70.0703 72.471C70.0703 73.2195 70.6759 73.8263 71.423 73.8263Z" stroke="#FF0000" stroke-width="0.75" stroke-miterlimit="10"/>
<path d="M68.3176 70.7149C69.0646 70.7149 69.6703 70.1082 69.6703 69.3597C69.6703 68.6112 69.0646 68.0044 68.3176 68.0044C67.5705 68.0044 66.9648 68.6112 66.9648 69.3597C66.9648 70.1082 67.5705 70.7149 68.3176 70.7149Z" stroke="#FF0000" stroke-width="0.75" stroke-miterlimit="10"/>
<path d="M65.2121 67.6036C65.9592 67.6036 66.5648 66.9968 66.5648 66.2483C66.5648 65.4998 65.9592 64.8931 65.2121 64.8931C64.465 64.8931 63.8594 65.4998 63.8594 66.2483C63.8594 66.9968 64.465 67.6036 65.2121 67.6036Z" stroke="#FF0000" stroke-width="0.75" stroke-miterlimit="10"/>
<path d="M62.1047 64.4918C62.8518 64.4918 63.4574 63.885 63.4574 63.1365C63.4574 62.388 62.8518 61.7812 62.1047 61.7812C61.3576 61.7812 60.752 62.388 60.752 63.1365C60.752 63.885 61.3576 64.4918 62.1047 64.4918Z" stroke="#FF0000" stroke-width="0.75" stroke-miterlimit="10"/>
<path d="M59.0031 61.3839C59.7502 61.3839 60.3558 60.7771 60.3558 60.0286C60.3558 59.2801 59.7502 58.6733 59.0031 58.6733C58.256 58.6733 57.6504 59.2801 57.6504 60.0286C57.6504 60.7771 58.256 61.3839 59.0031 61.3839Z" stroke="#FF0000" stroke-width="0.75" stroke-miterlimit="10"/>
<path d="M55.8957 58.2721C56.6428 58.2721 57.2484 57.6653 57.2484 56.9168C57.2484 56.1683 56.6428 55.5615 55.8957 55.5615C55.1486 55.5615 54.543 56.1683 54.543 56.9168C54.543 57.6653 55.1486 58.2721 55.8957 58.2721Z" stroke="#FF0000" stroke-width="0.75" stroke-miterlimit="10"/>
<path d="M52.7902 55.1607C53.5373 55.1607 54.1429 54.554 54.1429 53.8055C54.1429 53.057 53.5373 52.4502 52.7902 52.4502C52.0431 52.4502 51.4375 53.057 51.4375 53.8055C51.4375 54.554 52.0431 55.1607 52.7902 55.1607Z" stroke="#FF0000" stroke-width="0.75" stroke-miterlimit="10"/>
<path d="M49.6887 52.0494C50.4357 52.0494 51.0414 51.4426 51.0414 50.6941C51.0414 49.9456 50.4357 49.3389 49.6887 49.3389C48.9416 49.3389 48.3359 49.9456 48.3359 50.6941C48.3359 51.4426 48.9416 52.0494 49.6887 52.0494Z" stroke="#FF0000" stroke-width="0.75" stroke-miterlimit="10"/>
<path d="M46.5793 48.9376C47.3264 48.9376 47.932 48.3308 47.932 47.5823C47.932 46.8338 47.3264 46.2271 46.5793 46.2271C45.8322 46.2271 45.2266 46.8338 45.2266 47.5823C45.2266 48.3308 45.8322 48.9376 46.5793 48.9376Z" stroke="#FF0000" stroke-width="0.75" stroke-miterlimit="10"/>
<path d="M74.5246 70.7149C75.2717 70.7149 75.8773 70.1082 75.8773 69.3597C75.8773 68.6112 75.2717 68.0044 74.5246 68.0044C73.7775 68.0044 73.1719 68.6112 73.1719 69.3597C73.1719 70.1082 73.7775 70.7149 74.5246 70.7149Z" stroke="#FF0000" stroke-width="0.75" stroke-miterlimit="10"/>
<path d="M71.423 67.6036C72.1701 67.6036 72.7757 66.9968 72.7757 66.2483C72.7757 65.4998 72.1701 64.8931 71.423 64.8931C70.6759 64.8931 70.0703 65.4998 70.0703 66.2483C70.0703 66.9968 70.6759 67.6036 71.423 67.6036Z" stroke="#FF0000" stroke-width="0.75" stroke-miterlimit="10"/>
<path d="M68.3176 64.4918C69.0646 64.4918 69.6703 63.885 69.6703 63.1365C69.6703 62.388 69.0646 61.7812 68.3176 61.7812C67.5705 61.7812 66.9648 62.388 66.9648 63.1365C66.9648 63.885 67.5705 64.4918 68.3176 64.4918Z" stroke="#FF0000" stroke-width="0.75" stroke-miterlimit="10"/>
<path d="M65.2121 61.3839C65.9592 61.3839 66.5648 60.7771 66.5648 60.0286C66.5648 59.2801 65.9592 58.6733 65.2121 58.6733C64.465 58.6733 63.8594 59.2801 63.8594 60.0286C63.8594 60.7771 64.465 61.3839 65.2121 61.3839Z" stroke="#FF0000" stroke-width="0.75" stroke-miterlimit="10"/>
<path d="M62.1047 58.2721C62.8518 58.2721 63.4574 57.6653 63.4574 56.9168C63.4574 56.1683 62.8518 55.5615 62.1047 55.5615C61.3576 55.5615 60.752 56.1683 60.752 56.9168C60.752 57.6653 61.3576 58.2721 62.1047 58.2721Z" stroke="#FF0000" stroke-width="0.75" stroke-miterlimit="10"/>
<path d="M59.0031 55.1607C59.7502 55.1607 60.3558 54.554 60.3558 53.8055C60.3558 53.057 59.7502 52.4502 59.0031 52.4502C58.256 52.4502 57.6504 53.057 57.6504 53.8055C57.6504 54.554 58.256 55.1607 59.0031 55.1607Z" stroke="#FF0000" stroke-width="0.75" stroke-miterlimit="10"/>
<path d="M55.8957 52.0494C56.6428 52.0494 57.2484 51.4426 57.2484 50.6941C57.2484 49.9456 56.6428 49.3389 55.8957 49.3389C55.1486 49.3389 54.543 49.9456 54.543 50.6941C54.543 51.4426 55.1486 52.0494 55.8957 52.0494Z" stroke="#FF0000" stroke-width="0.75" stroke-miterlimit="10"/>
<path d="M52.7902 48.9376C53.5373 48.9376 54.1429 48.3308 54.1429 47.5823C54.1429 46.8338 53.5373 46.2271 52.7902 46.2271C52.0431 46.2271 51.4375 46.8338 51.4375 47.5823C51.4375 48.3308 52.0431 48.9376 52.7902 48.9376Z" stroke="#FF0000" stroke-width="0.75" stroke-miterlimit="10"/>
<path d="M49.6887 45.8297C50.4357 45.8297 51.0414 45.2229 51.0414 44.4744C51.0414 43.7259 50.4357 43.1191 49.6887 43.1191C48.9416 43.1191 48.3359 43.7259 48.3359 44.4744C48.3359 45.2229 48.9416 45.8297 49.6887 45.8297Z" stroke="#FF0000" stroke-width="0.75" stroke-miterlimit="10"/>
<path d="M77.6301 67.6036C78.3771 67.6036 78.9828 66.9968 78.9828 66.2483C78.9828 65.4998 78.3771 64.8931 77.6301 64.8931C76.883 64.8931 76.2773 65.4998 76.2773 66.2483C76.2773 66.9968 76.883 67.6036 77.6301 67.6036Z" stroke="#FF0000" stroke-width="0.75" stroke-miterlimit="10"/>
<path d="M74.5246 64.4918C75.2717 64.4918 75.8773 63.885 75.8773 63.1365C75.8773 62.388 75.2717 61.7812 74.5246 61.7812C73.7775 61.7812 73.1719 62.388 73.1719 63.1365C73.1719 63.885 73.7775 64.4918 74.5246 64.4918Z" stroke="#FF0000" stroke-width="0.75" stroke-miterlimit="10"/>
<path d="M71.423 61.3839C72.1701 61.3839 72.7757 60.7771 72.7757 60.0286C72.7757 59.2801 72.1701 58.6733 71.423 58.6733C70.6759 58.6733 70.0703 59.2801 70.0703 60.0286C70.0703 60.7771 70.6759 61.3839 71.423 61.3839Z" stroke="#FF0000" stroke-width="0.75" stroke-miterlimit="10"/>
<path d="M68.3176 58.2721C69.0646 58.2721 69.6703 57.6653 69.6703 56.9168C69.6703 56.1683 69.0646 55.5615 68.3176 55.5615C67.5705 55.5615 66.9648 56.1683 66.9648 56.9168C66.9648 57.6653 67.5705 58.2721 68.3176 58.2721Z" stroke="#FF0000" stroke-width="0.75" stroke-miterlimit="10"/>
<path d="M65.2121 55.1607C65.9592 55.1607 66.5648 54.554 66.5648 53.8055C66.5648 53.057 65.9592 52.4502 65.2121 52.4502C64.465 52.4502 63.8594 53.057 63.8594 53.8055C63.8594 54.554 64.465 55.1607 65.2121 55.1607Z" stroke="#FF0000" stroke-width="0.75" stroke-miterlimit="10"/>
<path d="M62.1047 52.0494C62.8518 52.0494 63.4574 51.4426 63.4574 50.6941C63.4574 49.9456 62.8518 49.3389 62.1047 49.3389C61.3576 49.3389 60.752 49.9456 60.752 50.6941C60.752 51.4426 61.3576 52.0494 62.1047 52.0494Z" stroke="#FF0000" stroke-width="0.75" stroke-miterlimit="10"/>
<path d="M59.0031 48.9376C59.7502 48.9376 60.3558 48.3308 60.3558 47.5823C60.3558 46.8338 59.7502 46.2271 59.0031 46.2271C58.256 46.2271 57.6504 46.8338 57.6504 47.5823C57.6504 48.3308 58.256 48.9376 59.0031 48.9376Z" stroke="#FF0000" stroke-width="0.75" stroke-miterlimit="10"/>
<path d="M55.8957 45.8297C56.6428 45.8297 57.2484 45.2229 57.2484 44.4744C57.2484 43.7259 56.6428 43.1191 55.8957 43.1191C55.1486 43.1191 54.543 43.7259 54.543 44.4744C54.543 45.2229 55.1486 45.8297 55.8957 45.8297Z" stroke="#FF0000" stroke-width="0.75" stroke-miterlimit="10"/>
<path d="M52.7902 42.7184C53.5373 42.7184 54.1429 42.1116 54.1429 41.3631C54.1429 40.6146 53.5373 40.0078 52.7902 40.0078C52.0431 40.0078 51.4375 40.6146 51.4375 41.3631C51.4375 42.1116 52.0431 42.7184 52.7902 42.7184Z" stroke="#FF0000" stroke-width="0.75" stroke-miterlimit="10"/>
<path d="M80.7375 64.4918C81.4846 64.4918 82.0902 63.885 82.0902 63.1365C82.0902 62.388 81.4846 61.7812 80.7375 61.7812C79.9904 61.7812 79.3848 62.388 79.3848 63.1365C79.3848 63.885 79.9904 64.4918 80.7375 64.4918Z" stroke="#FF0000" stroke-width="0.75" stroke-miterlimit="10"/>
<path d="M77.6301 61.3839C78.3771 61.3839 78.9828 60.7771 78.9828 60.0286C78.9828 59.2801 78.3771 58.6733 77.6301 58.6733C76.883 58.6733 76.2773 59.2801 76.2773 60.0286C76.2773 60.7771 76.883 61.3839 77.6301 61.3839Z" stroke="#FF0000" stroke-width="0.75" stroke-miterlimit="10"/>
<path d="M74.5246 58.2721C75.2717 58.2721 75.8773 57.6653 75.8773 56.9168C75.8773 56.1683 75.2717 55.5615 74.5246 55.5615C73.7775 55.5615 73.1719 56.1683 73.1719 56.9168C73.1719 57.6653 73.7775 58.2721 74.5246 58.2721Z" stroke="#FF0000" stroke-width="0.75" stroke-miterlimit="10"/>
<path d="M71.423 55.1607C72.1701 55.1607 72.7757 54.554 72.7757 53.8055C72.7757 53.057 72.1701 52.4502 71.423 52.4502C70.6759 52.4502 70.0703 53.057 70.0703 53.8055C70.0703 54.554 70.6759 55.1607 71.423 55.1607Z" stroke="#FF0000" stroke-width="0.75" stroke-miterlimit="10"/>
<path d="M68.3176 52.0494C69.0646 52.0494 69.6703 51.4426 69.6703 50.6941C69.6703 49.9456 69.0646 49.3389 68.3176 49.3389C67.5705 49.3389 66.9648 49.9456 66.9648 50.6941C66.9648 51.4426 67.5705 52.0494 68.3176 52.0494Z" stroke="#FF0000" stroke-width="0.75" stroke-miterlimit="10"/>
<path d="M65.2121 48.9376C65.9592 48.9376 66.5648 48.3308 66.5648 47.5823C66.5648 46.8338 65.9592 46.2271 65.2121 46.2271C64.465 46.2271 63.8594 46.8338 63.8594 47.5823C63.8594 48.3308 64.465 48.9376 65.2121 48.9376Z" stroke="#FF0000" stroke-width="0.75" stroke-miterlimit="10"/>
<path d="M62.1047 45.8297C62.8518 45.8297 63.4574 45.2229 63.4574 44.4744C63.4574 43.7259 62.8518 43.1191 62.1047 43.1191C61.3576 43.1191 60.752 43.7259 60.752 44.4744C60.752 45.2229 61.3576 45.8297 62.1047 45.8297Z" stroke="#FF0000" stroke-width="0.75" stroke-miterlimit="10"/>
<path d="M59.0031 42.7184C59.7502 42.7184 60.3558 42.1116 60.3558 41.3631C60.3558 40.6146 59.7502 40.0078 59.0031 40.0078C58.256 40.0078 57.6504 40.6146 57.6504 41.3631C57.6504 42.1116 58.256 42.7184 59.0031 42.7184Z" stroke="#FF0000" stroke-width="0.75" stroke-miterlimit="10"/>
<path d="M55.8957 39.6065C56.6428 39.6065 57.2484 38.9998 57.2484 38.2513C57.2484 37.5028 56.6428 36.896 55.8957 36.896C55.1486 36.896 54.543 37.5028 54.543 38.2513C54.543 38.9998 55.1486 39.6065 55.8957 39.6065Z" stroke="#FF0000" stroke-width="0.75" stroke-miterlimit="10"/>
<path d="M80.7375 58.2721C81.4846 58.2721 82.0902 57.6653 82.0902 56.9168C82.0902 56.1683 81.4846 55.5615 80.7375 55.5615C79.9904 55.5615 79.3848 56.1683 79.3848 56.9168C79.3848 57.6653 79.9904 58.2721 80.7375 58.2721Z" stroke="#FF0000" stroke-width="0.75" stroke-miterlimit="10"/>
<path d="M77.6301 55.1607C78.3771 55.1607 78.9828 54.554 78.9828 53.8055C78.9828 53.057 78.3771 52.4502 77.6301 52.4502C76.883 52.4502 76.2773 53.057 76.2773 53.8055C76.2773 54.554 76.883 55.1607 77.6301 55.1607Z" stroke="#FF0000" stroke-width="0.75" stroke-miterlimit="10"/>
<path d="M74.5246 52.0494C75.2717 52.0494 75.8773 51.4426 75.8773 50.6941C75.8773 49.9456 75.2717 49.3389 74.5246 49.3389C73.7775 49.3389 73.1719 49.9456 73.1719 50.6941C73.1719 51.4426 73.7775 52.0494 74.5246 52.0494Z" stroke="#FF0000" stroke-width="0.75" stroke-miterlimit="10"/>
<path d="M71.423 48.9376C72.1701 48.9376 72.7757 48.3308 72.7757 47.5823C72.7757 46.8338 72.1701 46.2271 71.423 46.2271C70.6759 46.2271 70.0703 46.8338 70.0703 47.5823C70.0703 48.3308 70.6759 48.9376 71.423 48.9376Z" stroke="#FF0000" stroke-width="0.75" stroke-miterlimit="10"/>
<path d="M68.3176 45.8297C69.0646 45.8297 69.6703 45.2229 69.6703 44.4744C69.6703 43.7259 69.0646 43.1191 68.3176 43.1191C67.5705 43.1191 66.9648 43.7259 66.9648 44.4744C66.9648 45.2229 67.5705 45.8297 68.3176 45.8297Z" stroke="#FF0000" stroke-width="0.75" stroke-miterlimit="10"/>
<path d="M65.2121 42.7184C65.9592 42.7184 66.5648 42.1116 66.5648 41.3631C66.5648 40.6146 65.9592 40.0078 65.2121 40.0078C64.465 40.0078 63.8594 40.6146 63.8594 41.3631C63.8594 42.1116 64.465 42.7184 65.2121 42.7184Z" stroke="#FF0000" stroke-width="0.75" stroke-miterlimit="10"/>
<path d="M62.1047 39.6065C62.8518 39.6065 63.4574 38.9998 63.4574 38.2513C63.4574 37.5028 62.8518 36.896 62.1047 36.896C61.3576 36.896 60.752 37.5028 60.752 38.2513C60.752 38.9998 61.3576 39.6065 62.1047 39.6065Z" stroke="#FF0000" stroke-width="0.75" stroke-miterlimit="10"/>
<path d="M59.0031 36.4952C59.7502 36.4952 60.3558 35.8884 60.3558 35.1399C60.3558 34.3914 59.7502 33.7847 59.0031 33.7847C58.256 33.7847 57.6504 34.3914 57.6504 35.1399C57.6504 35.8884 58.256 36.4952 59.0031 36.4952Z" stroke="#FF0000" stroke-width="0.75" stroke-miterlimit="10"/>
<path d="M80.7375 52.0494C81.4846 52.0494 82.0902 51.4426 82.0902 50.6941C82.0902 49.9456 81.4846 49.3389 80.7375 49.3389C79.9904 49.3389 79.3848 49.9456 79.3848 50.6941C79.3848 51.4426 79.9904 52.0494 80.7375 52.0494Z" stroke="#FF0000" stroke-width="0.75" stroke-miterlimit="10"/>
<path d="M77.6301 48.9376C78.3771 48.9376 78.9828 48.3308 78.9828 47.5823C78.9828 46.8338 78.3771 46.2271 77.6301 46.2271C76.883 46.2271 76.2773 46.8338 76.2773 47.5823C76.2773 48.3308 76.883 48.9376 77.6301 48.9376Z" stroke="#FF0000" stroke-width="0.75" stroke-miterlimit="10"/>
<path d="M74.5246 45.8297C75.2717 45.8297 75.8773 45.2229 75.8773 44.4744C75.8773 43.7259 75.2717 43.1191 74.5246 43.1191C73.7775 43.1191 73.1719 43.7259 73.1719 44.4744C73.1719 45.2229 73.7775 45.8297 74.5246 45.8297Z" stroke="#FF0000" stroke-width="0.75" stroke-miterlimit="10"/>
<path d="M71.423 42.7184C72.1701 42.7184 72.7757 42.1116 72.7757 41.3631C72.7757 40.6146 72.1701 40.0078 71.423 40.0078C70.6759 40.0078 70.0703 40.6146 70.0703 41.3631C70.0703 42.1116 70.6759 42.7184 71.423 42.7184Z" stroke="#FF0000" stroke-width="0.75" stroke-miterlimit="10"/>
<path d="M68.3176 39.6065C69.0646 39.6065 69.6703 38.9998 69.6703 38.2513C69.6703 37.5028 69.0646 36.896 68.3176 36.896C67.5705 36.896 66.9648 37.5028 66.9648 38.2513C66.9648 38.9998 67.5705 39.6065 68.3176 39.6065Z" stroke="#FF0000" stroke-width="0.75" stroke-miterlimit="10"/>
<path d="M65.2121 36.4952C65.9592 36.4952 66.5648 35.8884 66.5648 35.1399C66.5648 34.3914 65.9592 33.7847 65.2121 33.7847C64.465 33.7847 63.8594 34.3914 63.8594 35.1399C63.8594 35.8884 64.465 36.4952 65.2121 36.4952Z" stroke="#FF0000" stroke-width="0.75" stroke-miterlimit="10"/>
<path d="M62.1047 33.3834C62.8518 33.3834 63.4574 32.7766 63.4574 32.0281C63.4574 31.2796 62.8518 30.6729 62.1047 30.6729C61.3576 30.6729 60.752 31.2796 60.752 32.0281C60.752 32.7766 61.3576 33.3834 62.1047 33.3834Z" stroke="#FF0000" stroke-width="0.75" stroke-miterlimit="10"/>
<path d="M80.7375 45.8297C81.4846 45.8297 82.0902 45.2229 82.0902 44.4744C82.0902 43.7259 81.4846 43.1191 80.7375 43.1191C79.9904 43.1191 79.3848 43.7259 79.3848 44.4744C79.3848 45.2229 79.9904 45.8297 80.7375 45.8297Z" stroke="#FF0000" stroke-width="0.75" stroke-miterlimit="10"/>
<path d="M77.6301 42.7184C78.3771 42.7184 78.9828 42.1116 78.9828 41.3631C78.9828 40.6146 78.3771 40.0078 77.6301 40.0078C76.883 40.0078 76.2773 40.6146 76.2773 41.3631C76.2773 42.1116 76.883 42.7184 77.6301 42.7184Z" stroke="#FF0000" stroke-width="0.75" stroke-miterlimit="10"/>
<path d="M74.5246 39.6065C75.2717 39.6065 75.8773 38.9998 75.8773 38.2513C75.8773 37.5028 75.2717 36.896 74.5246 36.896C73.7775 36.896 73.1719 37.5028 73.1719 38.2513C73.1719 38.9998 73.7775 39.6065 74.5246 39.6065Z" stroke="#FF0000" stroke-width="0.75" stroke-miterlimit="10"/>
<path d="M71.423 36.4952C72.1701 36.4952 72.7757 35.8884 72.7757 35.1399C72.7757 34.3914 72.1701 33.7847 71.423 33.7847C70.6759 33.7847 70.0703 34.3914 70.0703 35.1399C70.0703 35.8884 70.6759 36.4952 71.423 36.4952Z" stroke="#FF0000" stroke-width="0.75" stroke-miterlimit="10"/>
<path d="M68.3176 33.3834C69.0646 33.3834 69.6703 32.7766 69.6703 32.0281C69.6703 31.2796 69.0646 30.6729 68.3176 30.6729C67.5705 30.6729 66.9648 31.2796 66.9648 32.0281C66.9648 32.7766 67.5705 33.3834 68.3176 33.3834Z" stroke="#FF0000" stroke-width="0.75" stroke-miterlimit="10"/>
<path d="M65.2121 30.2755C65.9592 30.2755 66.5648 29.6687 66.5648 28.9202C66.5648 28.1717 65.9592 27.5649 65.2121 27.5649C64.465 27.5649 63.8594 28.1717 63.8594 28.9202C63.8594 29.6687 64.465 30.2755 65.2121 30.2755Z" stroke="#FF0000" stroke-width="0.75" stroke-miterlimit="10"/>
<path d="M80.7375 39.6065C81.4846 39.6065 82.0902 38.9998 82.0902 38.2513C82.0902 37.5028 81.4846 36.896 80.7375 36.896C79.9904 36.896 79.3848 37.5028 79.3848 38.2513C79.3848 38.9998 79.9904 39.6065 80.7375 39.6065Z" stroke="#FF0000" stroke-width="0.75" stroke-miterlimit="10"/>
<path d="M77.6301 36.4952C78.3771 36.4952 78.9828 35.8884 78.9828 35.1399C78.9828 34.3914 78.3771 33.7847 77.6301 33.7847C76.883 33.7847 76.2773 34.3914 76.2773 35.1399C76.2773 35.8884 76.883 36.4952 77.6301 36.4952Z" stroke="#FF0000" stroke-width="0.75" stroke-miterlimit="10"/>
<path d="M74.5246 33.3834C75.2717 33.3834 75.8773 32.7766 75.8773 32.0281C75.8773 31.2796 75.2717 30.6729 74.5246 30.6729C73.7775 30.6729 73.1719 31.2796 73.1719 32.0281C73.1719 32.7766 73.7775 33.3834 74.5246 33.3834Z" stroke="#FF0000" stroke-width="0.75" stroke-miterlimit="10"/>
<path d="M71.423 30.2755C72.1701 30.2755 72.7757 29.6687 72.7757 28.9202C72.7757 28.1717 72.1701 27.5649 71.423 27.5649C70.6759 27.5649 70.0703 28.1717 70.0703 28.9202C70.0703 29.6687 70.6759 30.2755 71.423 30.2755Z" stroke="#FF0000" stroke-width="0.75" stroke-miterlimit="10"/>
<path d="M68.3176 27.1637C69.0646 27.1637 69.6703 26.5569 69.6703 25.8084C69.6703 25.0599 69.0646 24.4531 68.3176 24.4531C67.5705 24.4531 66.9648 25.0599 66.9648 25.8084C66.9648 26.5569 67.5705 27.1637 68.3176 27.1637Z" stroke="#FF0000" stroke-width="0.75" stroke-miterlimit="10"/>
<path d="M80.7375 33.3834C81.4846 33.3834 82.0902 32.7766 82.0902 32.0281C82.0902 31.2796 81.4846 30.6729 80.7375 30.6729C79.9904 30.6729 79.3848 31.2796 79.3848 32.0281C79.3848 32.7766 79.9904 33.3834 80.7375 33.3834Z" stroke="#FF0000" stroke-width="0.75" stroke-miterlimit="10"/>
<path d="M77.6301 30.2755C78.3771 30.2755 78.9828 29.6687 78.9828 28.9202C78.9828 28.1717 78.3771 27.5649 77.6301 27.5649C76.883 27.5649 76.2773 28.1717 76.2773 28.9202C76.2773 29.6687 76.883 30.2755 77.6301 30.2755Z" stroke="#FF0000" stroke-width="0.75" stroke-miterlimit="10"/>
<path d="M74.5246 27.1637C75.2717 27.1637 75.8773 26.5569 75.8773 25.8084C75.8773 25.0599 75.2717 24.4531 74.5246 24.4531C73.7775 24.4531 73.1719 25.0599 73.1719 25.8084C73.1719 26.5569 73.7775 27.1637 74.5246 27.1637Z" stroke="#FF0000" stroke-width="0.75" stroke-miterlimit="10"/>
<path d="M71.423 24.0523C72.1701 24.0523 72.7757 23.4456 72.7757 22.6971C72.7757 21.9486 72.1701 21.3418 71.423 21.3418C70.6759 21.3418 70.0703 21.9486 70.0703 22.6971C70.0703 23.4456 70.6759 24.0523 71.423 24.0523Z" stroke="#FF0000" stroke-width="0.75" stroke-miterlimit="10"/>
<path d="M80.7375 27.1637C81.4846 27.1637 82.0902 26.5569 82.0902 25.8084C82.0902 25.0599 81.4846 24.4531 80.7375 24.4531C79.9904 24.4531 79.3848 25.0599 79.3848 25.8084C79.3848 26.5569 79.9904 27.1637 80.7375 27.1637Z" stroke="#FF0000" stroke-width="0.75" stroke-miterlimit="10"/>
<path d="M77.6301 24.0523C78.3771 24.0523 78.9828 23.4456 78.9828 22.6971C78.9828 21.9486 78.3771 21.3418 77.6301 21.3418C76.883 21.3418 76.2773 21.9486 76.2773 22.6971C76.2773 23.4456 76.883 24.0523 77.6301 24.0523Z" stroke="#FF0000" stroke-width="0.75" stroke-miterlimit="10"/>
<path d="M74.5246 20.9405C75.2717 20.9405 75.8773 20.3338 75.8773 19.5853C75.8773 18.8368 75.2717 18.23 74.5246 18.23C73.7775 18.23 73.1719 18.8368 73.1719 19.5853C73.1719 20.3338 73.7775 20.9405 74.5246 20.9405Z" stroke="#FF0000" stroke-width="0.75" stroke-miterlimit="10"/>
<path d="M80.7375 20.9405C81.4846 20.9405 82.0902 20.3338 82.0902 19.5853C82.0902 18.8368 81.4846 18.23 80.7375 18.23C79.9904 18.23 79.3848 18.8368 79.3848 19.5853C79.3848 20.3338 79.9904 20.9405 80.7375 20.9405Z" stroke="#FF0000" stroke-width="0.75" stroke-miterlimit="10"/>
<path d="M77.6301 17.8292C78.3771 17.8292 78.9828 17.2224 78.9828 16.4739C78.9828 15.7254 78.3771 15.1187 77.6301 15.1187C76.883 15.1187 76.2773 15.7254 76.2773 16.4739C76.2773 17.2224 76.883 17.8292 77.6301 17.8292Z" stroke="#FF0000" stroke-width="0.75" stroke-miterlimit="10"/>
<path d="M80.7375 14.7213C81.4846 14.7213 82.0902 14.1145 82.0902 13.366C82.0902 12.6175 81.4846 12.0107 80.7375 12.0107C79.9904 12.0107 79.3848 12.6175 79.3848 13.366C79.3848 14.1145 79.9904 14.7213 80.7375 14.7213Z" stroke="#FF0000" stroke-width="0.75" stroke-miterlimit="10"/>
<path d="M60.5014 83.292L59.0835 84.7075L60.5014 86.1229L82.8543 108.437V164.592L2.83088 84.7075L82.8543 4.82252V60.9779L60.5014 83.292Z" stroke="#FF0000" stroke-width="4"/>
</svg>
