<svg width="203" height="43" viewBox="0 0 203 43" fill="none" xmlns="http://www.w3.org/2000/svg">
<path d="M49.7471 20.178L52.7846 15.8764C54.3894 17.4824 56.8538 18.8015 59.8913 18.8015C61.84 18.8015 63.0435 18.0559 63.0435 16.9662C63.0435 13.9264 50.4348 16.3926 50.4348 7.78946C50.4348 4.06142 53.587 0.734863 59.3182 0.734863C62.8716 0.734863 65.9664 1.8246 68.3736 3.832L65.2214 7.96152C63.3301 6.41295 60.923 5.66735 58.6878 5.66735C57.0257 5.66735 56.2807 6.3556 56.2807 7.27327C56.2807 10.0836 68.8894 8.01888 68.8894 16.3353C68.8894 20.8089 65.5652 23.7914 59.6048 23.7914C55.0771 23.734 51.9822 22.3001 49.7471 20.178Z" fill="black"/>
<path d="M77.3142 23.3329V14.3282L68.832 1.02197H75.3083L80.1799 9.28101L84.9368 1.02197H91.4704L83.0455 14.3282V23.3329H77.3142Z" fill="black"/>
<path d="M108.263 23.3329L98.8064 10.4281V23.3329H93.0752V1.02197H98.9784L107.976 13.2958V1.02197H113.765V23.3329H108.263Z" fill="black"/>
<path d="M117.776 23.3329V1.02197H134.11V6.06916H123.508V9.51043H133.881V14.5576H123.508V18.2857H134.11V23.3329H117.776Z" fill="black"/>
<path d="M149.872 23.3329L146.146 15.8768H143.223V23.3329H137.492V1.02197H148.611C153.54 1.02197 156.348 4.29118 156.348 8.4207C156.348 12.3208 153.998 14.3856 151.935 15.0738L156.463 23.2755H149.872V23.3329ZM150.502 8.4207C150.502 6.92948 149.241 6.06916 147.751 6.06916H143.223V10.8296H147.751C149.241 10.8296 150.502 9.96927 150.502 8.4207Z" fill="black"/>
<path d="M158.354 12.206C158.354 5.15138 163.741 0.677734 170.389 0.677734C175.375 0.677734 178.355 3.31604 179.903 6.06905L175.089 8.59265C174.229 7.10143 172.567 5.78228 170.389 5.78228C166.778 5.78228 164.199 8.59265 164.199 12.206C164.199 15.8193 166.778 18.6297 170.389 18.6297C172.051 18.6297 173.713 17.9414 174.516 17.3105V15.5899H169.529V10.5427H180.304V19.3753C177.897 22.0136 174.688 23.7342 170.446 23.7342C163.741 23.7342 158.354 19.2606 158.354 12.206Z" fill="black"/>
<path d="M188.844 23.3329V14.3282L180.419 1.02197H186.895L191.709 9.28101L196.524 1.02197H203L194.632 14.3282V23.3329H188.844Z" fill="black"/>
<path d="M63.8459 42.2598V32.4522L60.0633 42.2598H58.3439L54.5613 32.4522V42.2598H50.6641V27.2329H56.0514L59.2036 35.3772L62.3558 27.2329H67.7431V42.2598H63.8459Z" fill="black"/>
<path d="M74.2771 27.2329H70.3799V42.2598H74.2771V27.2329Z" fill="black"/>
<path d="M86.3695 42.2598L83.1028 37.2126L79.836 42.2598H75.251L80.5237 34.5743L75.5948 27.2329H80.1798L83.1028 31.936L86.0257 27.2329H90.6107L85.7391 34.5169L90.9545 42.2598H86.3695Z" fill="black"/>
<path d="M101.042 42.2598V30.6168H96.8008V27.2329H109.123V30.6168H104.939V42.2598H101.042Z" fill="black"/>
<path d="M119.267 42.2598L116.745 37.2126H114.739V42.2598H110.842V27.2329H118.35C121.674 27.2329 123.565 29.4697 123.565 32.2227C123.565 34.861 121.96 36.2376 120.585 36.7537L123.68 42.2598H119.267ZM119.668 32.2227C119.668 31.1904 118.808 30.6168 117.777 30.6168H114.739V33.8287H117.777C118.808 33.8287 119.668 33.2551 119.668 32.2227Z" fill="black"/>
<path d="M135.887 42.2598L135.142 40.0803H129.239L128.494 42.2598H124.081L129.755 27.2329H134.627L140.3 42.2598H135.887ZM132.162 31.0757L130.271 36.7537H134.111L132.162 31.0757Z" fill="black"/>
<path d="M145.172 27.2329H141.274V42.2598H145.172V27.2329Z" fill="black"/>
<path d="M158.01 42.2598L151.649 33.5419V42.2598H147.809V27.2329H151.763L157.896 35.4919V27.2329H161.793V42.2598H158.01Z" fill="black"/>
<path d="M168.268 27.2329H164.371V42.2598H168.268V27.2329Z" fill="black"/>
<path d="M181.107 42.2598L174.745 33.5419V42.2598H170.848V27.2329H174.86L180.935 35.4919V27.2329H184.832V42.2598H181.107Z" fill="black"/>
<path d="M186.724 34.7465C186.724 29.9861 190.392 26.9463 194.862 26.9463C198.243 26.9463 200.249 28.7243 201.281 30.617L198.014 32.3376C197.441 31.3626 196.295 30.4449 194.862 30.4449C192.398 30.4449 190.678 32.3376 190.678 34.8038C190.678 37.2701 192.398 39.1628 194.862 39.1628C195.951 39.1628 197.097 38.7039 197.613 38.2451V37.098H194.232V33.7141H201.51V39.679C199.848 41.3996 197.67 42.5467 194.862 42.5467C190.334 42.5467 186.724 39.5643 186.724 34.7465Z" fill="black"/>
<path d="M25.5614 34.976V25.914L21.3776 21.7271L25.6187 17.4829V8.4209L12.3223 21.7271L25.5614 34.976Z" fill="#FF0000"/>
<path d="M0 42.5466H41.6087V0.907227H0V42.5466ZM35.247 36.1802H6.36166V7.27357H35.247V36.1802Z" fill="#FF0000"/>
</svg>
