<svg width="118" height="118" viewBox="0 0 118 118" fill="none" xmlns="http://www.w3.org/2000/svg">
<path d="M58.6638 2.93279C73.5497 2.93279 87.5439 8.731 98.0702 19.2574C108.597 29.7837 114.395 43.7779 114.395 58.6638C114.395 73.5497 108.597 87.5439 98.0702 98.0702C87.5439 108.597 73.5497 114.395 58.6638 114.395C43.7779 114.395 29.7837 108.597 19.2574 98.0702C8.731 87.5478 2.93279 73.5497 2.93279 58.6638C2.93279 43.7779 8.731 29.7837 19.2574 19.2574C29.7837 8.731 43.7779 2.93279 58.6638 2.93279ZM58.6638 0C26.2644 0 0 26.2644 0 58.6638C0 91.0632 26.2644 117.328 58.6638 117.328C91.0632 117.328 117.328 91.0632 117.328 58.6638C117.328 26.2644 91.0632 0 58.6638 0Z" fill="#FF0000"/>
<path d="M58.6638 8.22772C72.1349 8.22772 84.8014 13.475 94.329 22.9987C103.857 32.5263 109.1 45.1928 109.1 58.6638C109.1 72.1349 103.853 84.8014 94.329 94.329C84.8014 103.857 72.1349 109.1 58.6638 109.1C45.1928 109.1 32.5263 103.853 22.9987 94.329C13.4711 84.8014 8.22772 72.1349 8.22772 58.6638C8.22772 45.1928 13.475 32.5263 22.9987 22.9987C32.5263 13.475 45.1928 8.22772 58.6638 8.22772ZM58.6638 5.29492C29.1893 5.29492 5.29492 29.1893 5.29492 58.6638C5.29492 88.1384 29.1893 112.033 58.6638 112.033C88.1384 112.033 112.033 88.1384 112.033 58.6638C112.033 29.1893 88.1384 5.29492 58.6638 5.29492Z" fill="#FF0000"/>
<path d="M58.6639 13.5226C70.724 13.5226 82.0589 18.2191 90.5838 26.744C99.1087 35.2689 103.805 46.6077 103.805 58.6639C103.805 70.72 99.1087 82.0588 90.5838 90.5838C82.0589 99.1087 70.7201 103.805 58.6639 103.805C46.6038 103.805 35.269 99.1087 26.744 90.5838C18.2191 82.0588 13.5227 70.72 13.5227 58.6639C13.5227 46.6077 18.2191 35.2689 26.744 26.744C35.269 18.2151 46.6078 13.5226 58.6639 13.5226ZM58.6639 10.5898C32.1103 10.5898 10.5859 32.1142 10.5859 58.6678C10.5859 85.2215 32.1103 106.746 58.6639 106.746C85.2176 106.746 106.742 85.2215 106.742 58.6678C106.742 32.1142 85.2176 10.5898 58.6639 10.5898Z" fill="#FF0000"/>
<path d="M58.664 18.8137C80.6361 18.8137 98.5143 36.6918 98.5143 58.664C98.5143 80.6361 80.6361 98.5143 58.664 98.5143C36.6918 98.5143 18.8137 80.6361 18.8137 58.664C18.8137 36.6918 36.6918 18.8137 58.664 18.8137ZM58.664 15.8809C35.0352 15.8809 15.8809 35.0352 15.8809 58.664C15.8809 82.2928 35.0352 101.447 58.664 101.447C82.2928 101.447 101.447 82.2928 101.447 58.664C101.447 35.0352 82.2928 15.8809 58.664 15.8809Z" fill="#FF0000"/>
<path d="M58.664 24.1086C77.7192 24.1086 93.2194 39.6088 93.2194 58.664C93.2194 77.7192 77.7192 93.2195 58.664 93.2195C39.6088 93.2195 24.1086 77.7192 24.1086 58.664C24.1086 39.6088 39.6088 24.1086 58.664 24.1086ZM58.664 21.1758C37.9601 21.1758 21.1758 37.9601 21.1758 58.664C21.1758 79.368 37.9601 96.1522 58.664 96.1522C79.3679 96.1522 96.1522 79.368 96.1522 58.664C96.1522 37.9601 79.3679 21.1758 58.664 21.1758Z" fill="#FF0000"/>
<path d="M58.6641 29.4035C74.7984 29.4035 87.9246 42.5297 87.9246 58.6641C87.9246 74.7984 74.7984 87.9246 58.6641 87.9246C42.5297 87.9246 29.4035 74.7984 29.4035 58.6641C29.4035 42.5297 42.5297 29.4035 58.6641 29.4035ZM58.6641 26.4707C40.885 26.4707 26.4707 40.885 26.4707 58.6641C26.4707 76.4431 40.885 90.8574 58.6641 90.8574C76.4431 90.8574 90.8574 76.4431 90.8574 58.6641C90.8574 40.885 76.4471 26.4707 58.6641 26.4707Z" fill="#FF0000"/>
<path d="M58.6642 34.6974C71.8815 34.6974 82.6338 45.4497 82.6338 58.6671C82.6338 71.8845 71.8815 82.6367 58.6642 82.6367C45.4468 82.6367 34.6945 71.8845 34.6945 58.6671C34.6945 45.4497 45.4468 34.6974 58.6642 34.6974ZM58.6642 31.7646C43.806 31.7646 31.7617 43.8089 31.7617 58.6671C31.7617 73.5252 43.806 85.5695 58.6642 85.5695C73.5223 85.5695 85.5666 73.5252 85.5666 58.6671C85.5666 43.8089 73.5223 31.7646 58.6642 31.7646Z" fill="#FF0000"/>
<path d="M58.6642 39.9894C68.9607 39.9894 77.3389 48.3677 77.3389 58.6642C77.3389 68.9607 68.9607 77.3389 58.6642 77.3389C48.3677 77.3389 39.9894 68.9607 39.9894 58.6642C39.9894 48.3677 48.3677 39.9894 58.6642 39.9894ZM58.6642 37.0566C46.7309 37.0566 37.0566 46.7309 37.0566 58.6642C37.0566 70.5975 46.7309 80.2717 58.6642 80.2717C70.5975 80.2717 80.2717 70.5975 80.2717 58.6642C80.2717 46.7309 70.5975 37.0566 58.6642 37.0566Z" fill="#FF0000"/>
</svg>
