<svg width="378" height="378" viewBox="0 0 378 378" fill="none" xmlns="http://www.w3.org/2000/svg">
<path d="M316.311 61.6888C282.304 27.6818 237.091 8.94872 189 8.94872C140.909 8.94872 95.6958 27.6818 61.6888 61.6888C27.6818 95.6958 8.94872 140.909 8.94872 189C8.94872 237.091 27.6818 282.317 61.6888 316.311C95.6958 350.318 140.909 369.051 189 369.051C237.091 369.051 282.304 350.318 316.311 316.311C350.318 282.304 369.051 237.091 369.051 189C369.051 140.909 350.318 95.6958 316.311 61.6888ZM0.5 189C0.5 84.8933 84.8933 0.5 189 0.5C293.107 0.5 377.5 84.8933 377.5 189C377.5 293.107 293.107 377.5 189 377.5C84.8933 377.5 0.5 293.107 0.5 189Z" stroke="#FF0000"/>
<path d="M73.7421 304.258L74.0957 303.904L73.7422 304.258C104.532 335.035 145.467 351.993 189 351.993C232.533 351.993 273.468 335.047 304.257 304.258L303.904 303.904L304.258 304.258C335.034 273.469 351.992 232.533 351.992 189C351.992 145.467 335.047 104.532 304.257 73.7426L303.904 74.0962L304.257 73.7425C273.468 42.966 232.533 26.0078 189 26.0078C145.467 26.0078 104.532 42.966 73.7422 73.7425L73.7421 73.7427C42.9656 104.532 26.0073 145.467 26.0073 189C26.0073 232.533 42.9527 273.469 73.7421 304.258ZM17.5586 189C17.5586 94.3168 94.3163 17.5591 189 17.5591C283.683 17.5591 360.441 94.3168 360.441 189C360.441 283.684 283.683 360.442 189 360.442C94.3163 360.442 17.5586 283.684 17.5586 189Z" stroke="#FF0000"/>
<path d="M292.191 85.8087C264.632 58.2498 227.987 43.0664 189 43.0664C150.025 43.0664 113.367 58.2369 85.8083 85.8087C58.2494 113.368 43.066 150.026 43.066 189C43.066 227.975 58.2494 264.633 85.8083 292.192C113.367 319.75 150.012 334.934 189 334.934C227.974 334.934 264.632 319.75 292.191 292.192C319.75 264.633 334.933 227.975 334.933 189C334.933 150.026 319.75 113.368 292.191 85.8087ZM34.6045 189.013C34.6045 103.74 103.727 34.6177 189 34.6177C274.273 34.6177 343.395 103.74 343.395 189.013C343.395 274.286 274.273 343.408 189 343.408C103.727 343.408 34.6045 274.286 34.6045 189.013Z" stroke="#FF0000"/>
<path d="M317.888 189C317.888 117.935 260.065 60.1123 189.001 60.1123C117.936 60.1123 60.1128 117.935 60.1128 189C60.1128 260.065 117.936 317.888 189.001 317.888C260.065 317.888 317.888 260.065 317.888 189ZM51.6641 189C51.6641 113.15 113.151 51.6636 189.001 51.6636C264.85 51.6636 326.337 113.15 326.337 189C326.337 264.85 264.85 326.336 189.001 326.336C113.151 326.336 51.6641 264.85 51.6641 189Z" stroke="#FF0000"/>
<path d="M300.829 189C300.829 127.333 250.668 77.1709 189 77.1709C127.333 77.1709 77.1714 127.333 77.1714 189C77.1714 250.667 127.333 300.829 189 300.829C250.668 300.829 300.829 250.667 300.829 189ZM68.7227 189C68.7227 122.573 122.574 68.7222 189 68.7222C255.427 68.7222 309.278 122.573 309.278 189C309.278 255.427 255.427 309.277 189 309.277C122.574 309.277 68.7227 255.427 68.7227 189Z" stroke="#FF0000"/>
<path d="M283.77 189C283.77 136.743 241.257 94.23 189 94.23C136.743 94.23 94.23 136.743 94.23 189C94.23 241.257 136.743 283.77 189 283.77C241.257 283.77 283.77 241.257 283.77 189ZM85.7812 189C85.7812 131.997 131.997 85.7812 189 85.7812C246.016 85.7812 292.219 131.997 292.219 189C292.219 246.004 246.004 292.219 189 292.219C131.997 292.219 85.7812 246.004 85.7812 189Z" stroke="#FF0000"/>
<path d="M266.724 189.013C266.724 146.154 231.859 111.289 189 111.289C146.141 111.289 111.276 146.154 111.276 189.013C111.276 231.872 146.141 266.737 189 266.737C231.859 266.737 266.724 231.872 266.724 189.013ZM102.827 189.013C102.827 141.42 141.407 102.84 189 102.84C236.593 102.84 275.173 141.42 275.173 189.013C275.173 236.606 236.593 275.186 189 275.186C141.407 275.186 102.827 236.606 102.827 189.013Z" stroke="#FF0000"/>
<path d="M249.665 189C249.665 155.551 222.449 128.334 189 128.334C155.551 128.334 128.334 155.551 128.334 189C128.334 222.449 155.551 249.665 189 249.665C222.449 249.665 249.665 222.449 249.665 189ZM119.886 189C119.886 150.83 150.83 119.886 189 119.886C227.17 119.886 258.114 150.83 258.114 189C258.114 227.17 227.17 258.114 189 258.114C150.83 258.114 119.886 227.17 119.886 189Z" stroke="#FF0000"/>
</svg>
