<svg width="16" height="14" viewBox="0 0 16 14" fill="none" xmlns="http://www.w3.org/2000/svg">
<path d="M11.9731 8.65827C12.2909 8.77614 13.9954 9.62905 14.3419 9.80569C14.6885 9.98232 14.9197 10.0705 15.0062 10.2175C15.093 10.3648 15.093 11.0708 14.8042 11.8947C14.5151 12.7184 13.1303 13.4703 12.4642 13.5716C11.8668 13.6624 11.1112 13.7003 10.2807 13.4319C9.7771 13.2693 9.13147 13.0525 8.30436 12.6888C4.82689 11.1614 2.55557 7.59917 2.38229 7.36378L2.37918 7.35956C2.19472 7.10904 0.966797 5.44141 0.966797 3.71552C0.966797 1.97962 1.86227 1.12653 2.17995 0.773439C2.49781 0.420174 2.87343 0.332031 3.10448 0.332031C3.33569 0.332031 3.56691 0.334118 3.7689 0.344375C3.98183 0.355154 4.26739 0.262317 4.54902 0.949724C4.83783 1.65608 5.53113 3.39198 5.6176 3.56844C5.70442 3.7449 5.76235 3.95091 5.64665 4.18631C5.53113 4.42153 5.15534 4.91856 4.78006 5.39266C4.62626 5.58667 4.42598 5.75913 4.62797 6.1124C4.83031 6.46532 5.526 7.62021 6.55648 8.55535C7.88072 9.75683 8.99766 10.1294 9.3444 10.3059C9.69114 10.4825 9.89313 10.4529 10.0955 10.2175C10.2978 9.98232 10.9621 9.18782 11.1933 8.8349C11.4241 8.48199 11.6555 8.54057 11.9731 8.65827Z" fill="#FF0000"/>
</svg>
