<svg width="19" height="19" viewBox="0 0 19 19" fill="none" xmlns="http://www.w3.org/2000/svg">
<path d="M15.4238 12.3813C14.4437 12.2566 13.5009 11.9808 12.6273 11.5634C12.1999 11.3541 11.6327 11.4241 11.3244 11.6695L9.35148 12.7992C7.40581 11.4193 6.28355 9.97022 5.44812 7.75858L6.99001 6.17332C7.37619 5.87474 7.5627 5.39053 7.47513 4.9028C7.28913 3.94756 7.25779 2.96612 7.38256 1.98561C7.47274 1.27729 6.96981 0.627697 6.26152 0.537566L3.32165 0.163461C2.61337 0.0733302 1.96378 0.576259 1.87365 1.28454C0.84051 9.40336 6.60504 16.8489 14.7239 17.882C15.4321 17.9721 16.0817 17.4692 16.1719 16.7609L16.5449 13.8293C16.635 13.121 16.1321 12.4714 15.4238 12.3813Z" fill="#1C3181"/>
</svg>
