<svg width="17" height="17" viewBox="0 0 17 17" fill="none" xmlns="http://www.w3.org/2000/svg">
<path d="M0.808594 3.36055V12.7117C0.808594 14.5478 2.29697 16.0361 4.13301 16.0361H13.4842C15.3202 16.0361 16.8086 14.5478 16.8086 12.7117V3.36055C16.8086 1.52451 15.3202 0.0361328 13.4842 0.0361328H4.13301C2.29697 0.0361328 0.808594 1.52451 0.808594 3.36055ZM10.5034 12.5695C6.55703 13.9312 2.91357 10.2877 4.2752 6.34131C4.73398 5.01123 5.78359 3.96152 7.11367 3.50273C11.0602 2.14111 14.7036 5.78457 13.342 9.73106C12.8832 11.0611 11.8336 12.1107 10.5034 12.5695ZM14.3604 3.19805C14.2977 3.52686 14.0256 3.71816 13.7441 3.71816C13.5729 3.71816 13.3982 3.64746 13.2646 3.49404C13.2527 3.48047 13.2417 3.46592 13.2319 3.45078C13.0939 3.23984 13.0896 2.98926 13.2069 2.78604C13.2899 2.64219 13.4239 2.53945 13.5844 2.49648C13.7446 2.45332 13.9122 2.47549 14.0559 2.55859C14.2592 2.67578 14.3807 2.89502 14.3668 3.14639C14.3658 3.16357 14.3638 3.18105 14.3604 3.19805Z" fill="black"/>
<path d="M8.80854 4.14941C6.66519 4.14941 4.92163 5.89297 4.92163 8.03633C4.92163 10.1797 6.66519 11.9232 8.80854 11.9232C10.9519 11.9232 12.6955 10.1797 12.6955 8.03633C12.6955 5.89297 10.9519 4.14941 8.80854 4.14941Z" fill="black"/>
</svg>
