<svg width="203" height="42" viewBox="0 0 203 42" fill="none" xmlns="http://www.w3.org/2000/svg">
<path d="M49.7471 19.5003L52.7846 15.1987C54.3894 16.8046 56.8538 18.1238 59.8913 18.1238C61.84 18.1238 63.0435 17.3782 63.0435 16.2884C63.0435 13.2487 50.4348 15.7149 50.4348 7.11173C50.4348 3.38369 53.587 0.0571289 59.3182 0.0571289C62.8716 0.0571289 65.9664 1.14686 68.3736 3.15427L65.2214 7.28379C63.3301 5.73522 60.923 4.98961 58.6878 4.98961C57.0257 4.98961 56.2807 5.67787 56.2807 6.59554C56.2807 9.4059 68.8894 7.34114 68.8894 15.6575C68.8894 20.1312 65.5652 23.1136 59.6048 23.1136C55.0771 23.0563 51.9822 21.6224 49.7471 19.5003Z" fill="black"/>
<path d="M77.3142 22.6551V13.6505L68.832 0.344238H75.3083L80.1799 8.60328L84.9368 0.344238H91.4704L83.0455 13.6505V22.6551H77.3142Z" fill="black"/>
<path d="M108.263 22.6551L98.8064 9.75037V22.6551H93.0752V0.344238H98.9784L107.976 12.6181V0.344238H113.765V22.6551H108.263Z" fill="black"/>
<path d="M117.777 22.6551V0.344238H134.111V5.39143H123.508V8.8327H133.881V13.8799H123.508V17.6079H134.111V22.6551H117.777Z" fill="black"/>
<path d="M149.872 22.6551L146.146 15.199H143.223V22.6551H137.492V0.344238H148.611C153.54 0.344238 156.348 3.61344 156.348 7.74296C156.348 11.6431 153.998 13.7078 151.935 14.3961L156.463 22.5978H149.872V22.6551ZM150.502 7.74296C150.502 6.25175 149.241 5.39143 147.751 5.39143H143.223V10.1518H147.751C149.241 10.1518 150.502 9.29153 150.502 7.74296Z" fill="black"/>
<path d="M158.354 11.5282C158.354 4.47365 163.741 0 170.389 0C175.375 0 178.356 2.6383 179.903 5.39132L175.089 7.91492C174.229 6.4237 172.567 5.10455 170.389 5.10455C166.779 5.10455 164.2 7.91492 164.2 11.5282C164.2 15.1416 166.779 17.9519 170.389 17.9519C172.051 17.9519 173.713 17.2637 174.516 16.6328V14.9122H169.53V9.86497H180.304V18.6976C177.897 21.3359 174.688 23.0565 170.447 23.0565C163.741 23.0565 158.354 18.5828 158.354 11.5282Z" fill="black"/>
<path d="M188.844 22.6551V13.6505L180.419 0.344238H186.895L191.709 8.60328L196.524 0.344238H203L194.632 13.6505V22.6551H188.844Z" fill="black"/>
<path d="M63.8459 41.582V31.7744L60.0633 41.582H58.3439L54.5613 31.7744V41.582H50.6641V26.5552H56.0514L59.2036 34.6995L62.3558 26.5552H67.7431V41.582H63.8459Z" fill="black"/>
<path d="M74.2766 26.5552H70.3794V41.582H74.2766V26.5552Z" fill="black"/>
<path d="M86.3695 41.582L83.1028 36.5348L79.836 41.582H75.251L80.5237 33.8965L75.5948 26.5552H80.1798L83.1028 31.2582L86.0257 26.5552H90.6107L85.7391 33.8392L90.9545 41.582H86.3695Z" fill="black"/>
<path d="M101.041 41.582V29.9391H96.8003V26.5552H109.122V29.9391H104.939V41.582H101.041Z" fill="black"/>
<path d="M119.267 41.582L116.745 36.5348H114.739V41.582H110.842V26.5552H118.35C121.674 26.5552 123.565 28.792 123.565 31.545C123.565 34.1833 121.96 35.5598 120.585 36.076L123.68 41.582H119.267ZM119.668 31.545C119.668 30.5126 118.808 29.9391 117.777 29.9391H114.739V33.1509H117.777C118.808 33.1509 119.668 32.5774 119.668 31.545Z" fill="black"/>
<path d="M135.887 41.582L135.142 39.4026H129.239L128.494 41.582H124.081L129.755 26.5552H134.627L140.3 41.582H135.887ZM132.162 30.3979L130.271 36.076H134.111L132.162 30.3979Z" fill="black"/>
<path d="M145.172 26.5552H141.275V41.582H145.172V26.5552Z" fill="black"/>
<path d="M158.01 41.582L151.648 32.8642V41.582H147.808V26.5552H151.763L157.895 34.8142V26.5552H161.793V41.582H158.01Z" fill="black"/>
<path d="M168.269 26.5552H164.372V41.582H168.269V26.5552Z" fill="black"/>
<path d="M181.107 41.582L174.745 32.8642V41.582H170.848V26.5552H174.86L180.935 34.8142V26.5552H184.832V41.582H181.107Z" fill="black"/>
<path d="M186.723 34.0688C186.723 29.3083 190.391 26.2686 194.862 26.2686C198.243 26.2686 200.249 28.0465 201.281 29.9392L198.014 31.6599C197.441 30.6848 196.295 29.7672 194.862 29.7672C192.397 29.7672 190.678 31.6599 190.678 34.1261C190.678 36.5924 192.397 38.485 194.862 38.485C195.951 38.485 197.097 38.0262 197.613 37.5674V36.4203H194.231V33.0364H201.51V39.0012C199.848 40.7219 197.67 41.869 194.862 41.869C190.334 41.869 186.723 38.8865 186.723 34.0688Z" fill="black"/>
<path d="M25.5611 34.2983V25.2363L21.3774 21.0494L25.6185 16.8052V7.74316L12.322 21.0494L25.5611 34.2983Z" fill="#FF0000"/>
<path d="M0 41.8688H41.6087V0.229492H0V41.8688ZM35.247 35.5025H6.36166V6.59584H35.247V35.5025Z" fill="#FF0000"/>
</svg>
