<svg width="25" height="14" viewBox="0 0 25 14" fill="none" xmlns="http://www.w3.org/2000/svg">
<path d="M24.5947 12.2502C24.5302 12.1421 24.1311 11.2751 22.211 9.49296C20.2009 7.62682 20.4709 7.92984 22.8921 4.7031C24.3667 2.73796 24.9562 1.53787 24.7717 1.02483C24.5962 0.535797 23.5116 0.664806 23.5116 0.664806L19.9053 0.685808C19.9053 0.685808 19.6383 0.649805 19.4388 0.768314C19.2453 0.885322 19.1208 1.15534 19.1208 1.15534C19.1208 1.15534 18.5492 2.67645 17.7872 3.96955C16.1806 6.69825 15.537 6.84226 15.2745 6.67275C14.6639 6.27822 14.817 5.08563 14.817 4.23957C14.817 1.59487 15.2175 0.492293 14.0354 0.207272C13.6424 0.112765 13.3543 0.0497609 12.3508 0.0392601C11.0637 0.0257591 9.9731 0.0437604 9.35656 0.345283C8.94553 0.546297 8.629 0.994831 8.82252 1.02033C9.06103 1.05183 9.60107 1.16584 9.8876 1.55587C10.2581 2.05841 10.2446 3.18949 10.2446 3.18949C10.2446 3.18949 10.4576 6.30222 9.74809 6.68925C9.26055 6.95477 8.593 6.41323 7.16039 3.93655C6.42684 2.66895 5.8718 1.26635 5.8718 1.26635C5.8718 1.26635 5.76529 1.00533 5.57478 0.865821C5.34376 0.696309 5.01974 0.642305 5.01974 0.642305L1.59049 0.663306C1.59049 0.663306 1.07595 0.678308 0.886934 0.901824C0.718922 1.10134 0.873433 1.51237 0.873433 1.51237C0.873433 1.51237 3.55863 7.79333 6.59785 10.9601C9.38656 13.8628 12.5518 13.6723 12.5518 13.6723H13.9859C13.9859 13.6723 14.4194 13.6243 14.6399 13.3857C14.844 13.1667 14.8365 12.7557 14.8365 12.7557C14.8365 12.7557 14.808 10.8311 15.702 10.5475C16.5826 10.2685 17.7137 12.4077 18.9123 13.2312C19.8183 13.8538 20.5069 13.7173 20.5069 13.7173L23.7126 13.6723C23.7126 13.6723 25.3897 13.5688 24.5947 12.2502Z" fill="black"/>
</svg>
