<svg width="547" height="747" viewBox="0 0 547 747" fill="none" xmlns="http://www.w3.org/2000/svg">
<path d="M625.514 122.254C558.401 55.1412 469.176 18.1725 374.268 18.1725C279.359 18.1725 190.134 55.1412 123.022 122.254C55.9088 189.367 18.9401 278.592 18.9401 373.5C18.9401 468.408 55.9087 557.658 123.022 624.746C190.134 691.859 279.359 728.828 374.268 728.828C469.176 728.828 558.401 691.859 625.514 624.746C692.626 557.633 729.595 468.408 729.595 373.5C729.595 278.592 692.626 189.367 625.514 122.254ZM1.26758 373.5C1.26758 167.496 168.263 0.5 374.268 0.5C580.272 0.5 747.268 167.496 747.268 373.5C747.268 579.504 580.272 746.5 374.268 746.5C168.263 746.5 1.26758 579.504 1.26758 373.5Z" stroke="#FF0000"/>
<path d="M146.841 146.074L146.841 146.074C86.1123 206.828 52.651 287.6 52.651 373.5C52.651 459.4 86.087 540.172 146.841 600.926C207.595 661.655 288.367 695.116 374.267 695.116C460.167 695.116 540.939 661.68 601.693 600.926C662.422 540.172 695.883 459.4 695.883 373.5C695.883 287.6 662.447 206.828 601.693 146.074L601.34 146.428L601.693 146.074C540.939 85.3452 460.167 51.8839 374.267 51.8839C288.367 51.8839 207.595 85.3452 146.841 146.074ZM34.9785 373.5C34.9785 186.118 186.885 34.2114 374.267 34.2114C561.649 34.2114 713.556 186.118 713.556 373.5C713.556 560.882 561.649 712.789 374.267 712.789C186.885 712.789 34.9785 560.882 34.9785 373.5Z" stroke="#FF0000"/>
<path d="M170.687 169.919C116.317 224.289 86.3627 296.608 86.3627 373.5C86.3627 450.392 116.317 522.711 170.687 577.081C225.057 631.451 297.351 661.405 374.267 661.405C451.159 661.405 523.478 631.451 577.848 577.081C632.218 522.711 662.172 450.392 662.172 373.5C662.172 296.608 632.218 224.289 577.848 169.919C523.478 115.549 451.184 85.5953 374.267 85.5953C297.376 85.5953 225.057 115.524 170.687 169.919ZM170.687 169.919L171.04 170.273L170.687 169.919ZM68.665 373.525C68.665 204.74 205.482 67.9229 374.267 67.9229C543.053 67.9229 679.87 204.74 679.87 373.525C679.87 542.311 543.053 679.128 374.267 679.128C205.482 679.128 68.665 542.311 68.665 373.525Z" stroke="#FF0000"/>
<path d="M628.487 373.5C628.487 233.331 514.436 119.281 374.268 119.281C234.1 119.281 120.049 233.331 120.049 373.5C120.049 513.668 234.1 627.718 374.268 627.718C514.436 627.718 628.487 513.668 628.487 373.5ZM102.377 373.5C102.377 223.336 224.105 101.609 374.268 101.609C524.432 101.609 646.159 223.336 646.159 373.5C646.159 523.663 524.432 645.391 374.268 645.391C224.105 645.391 102.377 523.663 102.377 373.5Z" stroke="#FF0000"/>
<path d="M594.775 373.5C594.775 251.903 495.864 152.993 374.268 152.993C252.671 152.993 153.76 251.903 153.76 373.5C153.76 495.097 252.671 594.007 374.268 594.007C495.864 594.007 594.775 495.097 594.775 373.5ZM136.088 373.5C136.088 241.959 242.726 135.321 374.268 135.321C505.809 135.321 612.447 241.959 612.447 373.5C612.447 505.042 505.809 611.68 374.268 611.68C242.726 611.68 136.088 505.042 136.088 373.5Z" stroke="#FF0000"/>
<path d="M561.064 373.5C561.064 270.5 477.268 186.704 374.268 186.704C271.268 186.704 187.472 270.5 187.472 373.5C187.472 476.5 271.268 560.296 374.268 560.296C477.268 560.296 561.064 476.5 561.064 373.5ZM169.8 373.5C169.8 260.581 261.349 169.032 374.268 169.032C487.213 169.032 578.736 260.581 578.736 373.5C578.736 486.419 487.188 577.968 374.268 577.968C261.349 577.968 169.8 486.419 169.8 373.5Z" stroke="#FF0000"/>
<path d="M527.377 373.525C527.377 289.097 458.696 220.416 374.267 220.416C289.839 220.416 221.158 289.097 221.158 373.525C221.158 457.954 289.839 526.635 374.267 526.635C458.696 526.635 527.377 457.954 527.377 373.525ZM203.485 373.525C203.485 279.203 279.945 202.743 374.267 202.743C468.59 202.743 545.05 279.203 545.05 373.525C545.05 467.848 468.59 544.307 374.267 544.307C279.945 544.307 203.485 467.848 203.485 373.525Z" stroke="#FF0000"/>
<path d="M493.666 373.5C493.666 307.668 440.1 254.102 374.268 254.102C308.436 254.102 254.87 307.668 254.87 373.5C254.87 439.332 308.436 492.898 374.268 492.898C440.1 492.898 493.666 439.332 493.666 373.5ZM237.197 373.5C237.197 297.799 298.567 236.429 374.268 236.429C449.969 236.429 511.339 297.799 511.339 373.5C511.339 449.201 449.969 510.571 374.268 510.571C298.567 510.571 237.197 449.201 237.197 373.5Z" stroke="#FF0000"/>
</svg>
