<svg width="786" height="786" viewBox="0 0 786 786" fill="none" xmlns="http://www.w3.org/2000/svg">
<circle cx="393" cy="393" r="393" fill="#FAFAFA"/>
<path d="M218.965 447.223C219.25 445.34 219.364 443.457 219.364 441.518C219.364 420.294 202.078 403.007 180.854 403.007C179.257 403.007 177.716 403.121 176.233 403.292L168.531 410.994C172.353 409.454 176.518 408.598 180.911 408.598C199.111 408.598 213.83 423.318 213.83 441.518C213.83 446.538 212.689 451.274 210.75 455.495L218.965 447.223Z" fill="#FF0000"/>
<path d="M142.629 436.897C142.458 438.437 142.344 439.978 142.344 441.518C142.344 462.742 159.631 480.028 180.854 480.028C182.794 480.028 184.677 479.914 186.559 479.629L194.832 471.356C190.61 473.353 185.875 474.437 180.854 474.437C162.655 474.437 147.935 459.718 147.935 441.518C147.935 437.125 148.791 432.96 150.331 429.138L142.629 436.897Z" fill="#FF0000"/>
<path d="M74.1096 548.605L95.5041 527.211H74.1096V548.605Z" fill="#FF0000"/>
<path d="M52.715 527.211V548.605L74.1096 527.211H52.715Z" fill="#FF0000"/>
<path d="M31.0352 570.855L52.4297 549.461H31.0352V570.855Z" fill="#FF0000"/>
<path d="M180.911 454.641C188.157 454.641 194.033 448.764 194.033 441.519C194.033 434.273 188.157 428.396 180.911 428.396C173.666 428.396 167.789 434.273 167.789 441.519C167.732 448.764 173.666 454.641 180.911 454.641Z" fill="#FF0000"/>
<path d="M455.275 124.249L445.69 133.834H455.275V124.249Z" fill="#FF0000"/>
<path d="M341.684 264.37C356.061 264.37 367.7 252.731 367.7 238.354C367.7 231.051 364.676 224.433 359.827 219.698L323.085 256.44C327.764 261.346 334.382 264.37 341.684 264.37Z" fill="#FF0000"/>
<path d="M74.1096 505.587V526.982L95.5041 505.587H74.1096Z" fill="#FF0000"/>
<path d="M167.846 498.399C146.395 493.492 129.45 476.719 124.258 455.324L95.8464 483.736V548.833H74.1666V549.461H52.772V570.855L74.1095 549.518V570.855L95.7894 549.175V570.399L117.355 548.833H96.0746L117.697 527.21H96.0746L117.697 505.587H96.0746L118.04 483.679V548.148L167.846 498.399Z" fill="#FF0000"/>
<path d="M427.947 151.578H455.275V144.104L445.348 134.177L427.947 151.578Z" fill="#FF0000"/>
<path d="M262.838 345.442V403.35L274.534 391.654V345.442H262.838Z" fill="#FF0000"/>
<path d="M287.599 378.589L320.746 345.442H287.599V378.589Z" fill="#FF0000"/>
<path d="M287.599 332.378H333.811L345.507 320.682H287.599V332.378Z" fill="#FF0000"/>
<path d="M455.275 197.39L445.234 187.349V204.636L427.947 187.349V204.636L410.66 187.349V204.636L393.145 187.121H455.275V179.59L445.234 169.549V186.836L427.947 169.549V186.836L410.432 169.321H455.275V161.847L445.234 151.805V169.092L427.833 151.691L377.969 201.555C387.497 210.912 393.374 223.977 393.374 238.354C393.374 266.938 370.21 290.044 341.684 290.044C327.25 290.044 314.242 284.167 304.886 274.64L194.661 384.865C215.998 390.057 232.772 407.002 237.735 428.511L249.83 416.415V332.377H274.534V307.673H358.572L455.332 210.969V197.39H455.275Z" fill="#FF0000"/>
<path d="M188.67 390.914L183.593 395.991C206.927 397.361 225.583 416.245 226.496 439.751L231.631 434.616C228.55 412.137 210.978 394.28 188.67 390.914Z" fill="#FF0000"/>
<path d="M130.249 449.277C133.672 471.584 151.529 489.213 173.951 492.237L179.086 487.045C155.637 486.132 136.696 467.476 135.327 444.142L130.249 449.277Z" fill="#FF0000"/>
<path d="M155.067 441.519C155.067 455.782 166.648 467.363 180.911 467.363C195.174 467.363 206.756 455.782 206.756 441.519C206.756 427.255 195.174 415.674 180.911 415.674C166.648 415.674 155.067 427.312 155.067 441.519ZM180.911 421.265C192.094 421.265 201.165 430.336 201.165 441.519C201.165 452.701 192.094 461.772 180.911 461.772C169.729 461.772 160.658 452.701 160.658 441.519C160.658 430.336 169.729 421.265 180.911 421.265Z" fill="#FF0000"/>
</svg>
